<svg width="45" height="35" viewBox="0 0 45 35" fill="none" xmlns="http://www.w3.org/2000/svg">
<path fill-rule="evenodd" clip-rule="evenodd" d="M34.9496 18.6433C34.3269 17.5673 33.4276 16.8323 32.1824 16.4168C31.7327 16.257 31.2024 16.257 30.7527 16.1718C30.7527 16.012 30.7527 15.8415 30.7527 15.6817C30.7527 15.0212 30.4875 14.8614 29.8649 14.691C29.7727 14.691 29.7727 14.691 29.692 14.691C28.9771 14.691 28.5275 14.2755 28.3545 13.7002C27.8241 12.5497 27.19 11.4737 26.6596 10.3232C27.0171 10.2379 27.2822 10.2379 27.5474 10.2379C27.7204 10.2379 27.9049 10.0781 27.9049 9.99291C28.0893 9.17261 28.17 8.42689 27.9971 7.68116C27.8241 7.10589 27.4667 6.93544 26.8326 7.02066C26.0255 7.18046 25.2299 7.43614 24.5151 7.92618C24.1577 8.17121 23.8925 8.34166 24.0654 8.74648C23.6158 8.83171 23.1776 8.99151 22.8202 9.07673C22.555 9.16196 22.4628 9.32175 22.555 9.49221C22.6473 9.652 22.8202 9.73723 23.0047 9.652C23.4544 9.56678 23.8118 9.49221 24.2499 9.32175C24.2499 9.40698 24.3421 9.56678 24.4229 9.652C24.2499 9.89703 23.8002 9.98225 24.0654 10.3125C24.2384 10.5575 24.4229 10.4723 24.688 10.3977C24.688 10.483 24.7803 10.5575 24.7803 10.5575C25.1377 11.463 25.4951 12.3686 25.8525 13.2741C26.21 14.0198 26.3022 14.7549 26.1177 15.5858C25.9448 16.4914 25.7603 17.3969 25.3106 18.2278C24.9532 18.8883 24.4229 19.3038 23.6158 19.4636C22.0938 19.7939 20.5834 19.8791 19.0615 19.6234C18.0815 19.4636 17.1014 18.4729 17.1014 17.6419C17.1014 17.3117 17.2744 16.9814 17.4589 16.7364C17.724 16.2463 18.1737 15.8309 18.5311 15.4154C18.6234 15.3302 18.6234 15.2556 18.7041 15.1704C18.8886 14.9253 19.0615 14.7549 18.8886 14.5099C18.7963 14.2648 18.4389 14.3501 18.2659 14.3501C14.8762 14.3501 11.5787 14.3501 8.18891 14.3501C7.92373 14.3501 7.65854 14.4353 7.47406 14.5951C7.11664 14.9253 6.75922 15.1704 6.40179 15.4154C6.30955 15.5006 6.13661 15.5752 5.95213 15.5752C5.06434 15.49 4.34949 15.735 3.72688 16.3955C3.4617 16.7257 3.27722 16.9708 3.4617 17.301C3.55393 17.3862 3.55393 17.546 3.55393 17.6313C3.55393 17.8763 3.72688 18.1213 4.0036 18.2065C3.73841 18.7818 3.47323 19.2825 3.19651 19.8578C3.10427 20.0176 3.02356 20.2733 3.02356 20.4331C2.93133 20.8485 3.1158 21.0936 3.47323 21.1788C3.83065 21.264 4.28031 21.3386 4.63773 21.4238C4.5455 22.7448 4.99516 23.8101 6.06743 24.7263C6.78228 25.3868 7.76231 25.717 8.74234 25.717C10.6217 25.8023 12.6625 24.6411 13.1121 22.4145C13.2044 22.4145 13.3773 22.4145 13.4696 22.4145C16.6864 22.4145 19.7994 22.4145 23.0162 22.4145C23.8233 22.4145 24.6189 22.3293 25.4259 21.9245C25.5989 21.8393 25.7834 21.7647 25.9563 21.5943C25.9563 21.754 26.0486 21.8393 26.0486 21.9245C26.1408 22.2548 26.1408 22.2548 26.4982 22.1695C26.7634 22.0843 26.9479 22.0097 27.2131 21.8393C27.3053 23.8208 28.1931 25.1418 30.2454 25.6318C31.6751 25.9621 33.1048 25.5466 34.0848 24.3108C35.33 22.83 35.2493 21.3386 34.1771 19.8578C34.4422 19.5275 34.7074 19.2825 34.9841 18.9523C34.9841 18.867 34.9841 18.7925 34.9841 18.622L34.9496 18.6433ZM31.0294 24.0871C29.5997 24.0871 28.5275 22.7661 29.0694 21.4451C29.0694 21.3599 29.2423 21.2001 29.3345 21.2001C30.2223 20.9551 31.2139 20.71 32.1017 20.5396C32.1939 20.5396 32.3669 20.5396 32.4591 20.6248C33.174 21.1149 33.3469 22.031 32.9895 22.7661C32.7243 23.5864 31.9172 24.0871 31.0294 24.0871ZM11.3135 21.7754C11.3135 22.6809 10.8638 23.3414 10.0683 23.7569C9.18047 24.2469 8.18891 24.2469 7.30112 23.6716C6.49403 23.1816 6.22885 22.5211 6.22885 21.6156C8.01596 21.7008 9.6186 21.7008 11.3135 21.7754Z" fill="#0098DA"/>
<path fill-rule="evenodd" clip-rule="evenodd" d="M34.9499 18.6433C34.3273 17.5674 33.428 16.8323 32.1827 16.4168C31.7331 16.257 31.2027 16.257 30.753 16.1718V15.9268C30.753 15.9268 30.753 15.9268 28.7353 17.2691C26.7176 18.6114 25.9336 21.6156 25.9336 21.6156L26.1411 22.2228L26.9252 22.0097C27.0059 21.9671 27.0866 21.9245 27.1788 21.8606V21.9352L29.0582 21.4132C29.0928 21.3279 29.2426 21.2001 29.3234 21.2001C30.2111 20.9551 31.2027 20.71 32.0905 20.5396C32.1251 20.5396 32.1712 20.5396 32.2173 20.5396L34.2235 19.9856L34.1428 19.8684C34.408 19.5382 34.6732 19.2932 34.9499 18.9629C34.9499 18.8777 34.9499 18.8031 34.9499 18.6327V18.6433Z" fill="#96989A"/>
<path fill-rule="evenodd" clip-rule="evenodd" d="M4.61475 21.4449C4.52251 22.7659 4.97218 23.8312 6.04445 24.7474C6.75929 25.4079 7.73933 25.7382 8.71936 25.7382C10.5987 25.8234 12.6395 24.6622 13.0891 22.4357L11.302 21.7752C11.302 22.6807 10.8524 23.3412 10.0568 23.7567C9.16902 24.2467 8.17746 24.2467 7.28966 23.6715C6.48258 23.1814 6.21739 22.5209 6.21739 21.6154L8.65018 21.69C7.86615 21.6686 7.05907 21.6473 6.21739 21.6154L4.61475 21.4556V21.4449ZM27.1901 21.8604C27.2823 23.8419 28.1701 25.1629 30.2224 25.6529C31.6521 25.9832 33.0818 25.5677 34.0618 24.332C35.284 22.8831 35.2263 21.4343 34.2348 19.9961L32.1018 20.5394C32.194 20.5394 32.367 20.5394 32.4592 20.6246C33.174 21.1147 33.347 22.0309 32.9896 22.7659C32.7244 23.5862 31.9173 24.0869 31.0295 24.0869C29.5998 24.0869 28.5275 22.7659 29.0694 21.4449C29.0694 21.413 29.0925 21.381 29.1271 21.3384L27.2016 21.8604H27.1901Z" fill="#373435"/>
<path fill-rule="evenodd" clip-rule="evenodd" d="M13.1352 13.966C15.0146 13.966 16.8824 13.966 18.7617 13.966C19.7418 13.966 19.1883 12.7834 19.0269 12.0697C18.9347 11.8247 18.7617 11.7394 18.4966 11.7394C15.7294 11.6542 12.87 11.4944 10.1144 11.4092C9.30732 11.4092 8.51176 11.4944 7.79691 11.4944C7.62397 11.4944 7.53173 11.5796 7.34725 11.5796C6.72464 11.8247 6.45946 12.2401 6.63241 12.8154C6.63241 13.1457 6.80535 13.3907 6.98983 13.7209C7.08207 13.966 7.25501 13.966 7.5202 13.966C9.39956 13.966 11.2674 13.966 13.1352 13.966Z" fill="#5F5F5F"/>
</svg>
