<svg width="22" height="22" viewBox="0 0 22 22" fill="none" xmlns="http://www.w3.org/2000/svg">
<path d="M1.86442 14.314C1.52976 13.9793 1.17386 13.6606 0.860444 13.3047C0.238932 12.6035 -0.0426077 11.7642 0.00520091 10.8239C0.0476974 9.91556 0.408918 9.14 1.04637 8.49724C1.65194 7.88635 2.26283 7.28077 2.86841 6.66989C3.20307 6.34054 3.68646 6.28742 4.03175 6.54771C4.48859 6.89299 4.53108 7.49857 4.11674 7.91291C3.52179 8.51317 2.92153 9.11344 2.32126 9.70839C2.10878 9.92087 1.93879 10.1599 1.84849 10.4468C1.65194 11.0895 1.75818 11.6845 2.22033 12.1732C2.83653 12.8213 3.47929 13.4428 4.11143 14.0802C4.37172 14.3405 4.46734 14.6486 4.3611 15.0045C4.16455 15.642 3.37836 15.8226 2.88434 15.3498C2.87903 15.3445 2.87372 15.3392 2.86841 15.3339C2.52843 14.9939 2.19377 14.6592 1.8538 14.3193C1.85911 14.3193 1.86442 14.314 1.86442 14.314Z" fill="#00ABFF"/>
<path d="M14.3209 1.85666C14.6609 2.19663 15.0061 2.5366 15.3408 2.87657C15.6383 3.17936 15.702 3.59901 15.5108 3.9443C15.2186 4.47019 14.5334 4.5605 14.0872 4.1196C13.4869 3.52464 12.8919 2.92969 12.297 2.32943C12.127 2.15944 11.9411 2.01602 11.7233 1.91509C11.0912 1.62292 10.3103 1.73979 9.81094 2.22319C9.1735 2.8447 8.54667 3.48215 7.91454 4.10897C7.6808 4.3427 7.39927 4.44894 7.06992 4.37989C6.73526 4.30552 6.51215 4.09835 6.41653 3.77431C6.3156 3.42903 6.40591 3.12624 6.65558 2.87657C7.25053 2.27631 7.85079 1.67605 8.45105 1.08109C8.57323 0.958916 8.70603 0.842051 8.84415 0.735809C9.71001 0.0771129 10.6821 -0.13537 11.7445 0.0824248C12.4245 0.220539 13.0088 0.555199 13.5028 1.04391C13.7791 1.31482 14.05 1.58574 14.3209 1.85666Z" fill="#00ABFF"/>
<path d="M20.1381 14.329C19.7981 14.6689 19.4635 15.0089 19.1235 15.3436C18.8207 15.641 18.4011 15.7048 18.0558 15.5135C17.5299 15.2214 17.4449 14.5361 17.8752 14.1005C18.4754 13.495 19.0757 12.8947 19.676 12.2997C19.8885 12.0873 20.0584 11.8482 20.1487 11.5614C20.3453 10.9186 20.239 10.3237 19.7769 9.83495C19.1607 9.17625 18.5179 8.55474 17.8858 7.9226C17.5777 7.6145 17.5086 7.18954 17.7052 6.83894C17.992 6.32898 18.6667 6.22274 19.0863 6.63708C19.7928 7.33296 20.5153 8.01291 21.174 8.75659C21.8805 9.54809 22.1089 10.5149 21.9495 11.5667C21.8327 12.3316 21.4821 12.9744 20.9402 13.5215C20.68 13.7871 20.409 14.058 20.1381 14.329Z" fill="#00ABFF"/>
<path d="M14.3103 20.135C13.9703 20.475 13.6516 20.8309 13.2904 21.1443C12.5839 21.7658 11.7446 22.0421 10.8097 21.9943C9.89067 21.9465 9.1098 21.5746 8.46173 20.9265C7.86146 20.3263 7.26651 19.7313 6.66625 19.1311C6.36346 18.823 6.2944 18.4033 6.48564 18.0527C6.7778 17.5268 7.46306 17.4365 7.90927 17.8774C8.50953 18.4724 9.1098 19.0726 9.70475 19.6729C9.86942 19.8429 10.0553 19.981 10.2731 20.0819C10.9053 20.3741 11.6862 20.2572 12.1855 19.7738C12.8282 19.1523 13.4551 18.5095 14.0872 17.8827C14.3953 17.5799 14.815 17.5109 15.1656 17.7074C15.6861 17.9996 15.7764 18.6795 15.3462 19.1151C15.0062 19.4604 14.6609 19.8004 14.3156 20.1457C14.3156 20.1404 14.3156 20.1404 14.3103 20.135Z" fill="#00ABFF"/>
<path d="M14.0718 7.25342C13.0466 8.27865 12.0267 9.29857 11.0015 10.3238C9.97624 9.29857 8.95101 8.27334 7.92578 7.24811C8.95101 6.22288 9.97093 5.20296 10.9962 4.17773C12.0214 5.20296 13.0466 6.22288 14.0718 7.25342ZM13.1954 7.25342C12.4623 6.52036 11.7345 5.7926 11.0015 5.05954C10.2684 5.7926 9.53534 6.52567 8.80758 7.25342L11.0015 9.4473C11.7345 8.71424 12.4623 7.98649 13.1954 7.25342Z" fill="#00ABFF"/>
<path d="M11.6807 10.9991C12.7059 9.97386 13.7258 8.95394 14.751 7.92871C15.7763 8.95394 16.7962 9.97386 17.8214 10.9991C16.8015 12.019 15.7763 13.0442 14.751 14.0695C13.7311 13.0495 12.7059 12.0296 11.6807 10.9991ZM14.751 13.1983C15.4841 12.4652 16.2119 11.7375 16.9449 11.0044C16.2119 10.2713 15.4788 9.53827 14.751 8.81051C14.018 9.54358 13.2902 10.2713 12.5572 11.0044C13.2902 11.7375 14.018 12.4652 14.751 13.1983Z" fill="#00ABFF"/>
<path d="M10.3214 11.004C9.29619 12.0292 8.27627 13.0491 7.25104 14.0743C6.22581 13.0491 5.20589 12.0292 4.18066 11.004L7.25104 7.93359C8.27096 8.95351 9.29087 9.97343 10.3214 11.004ZM7.24573 13.1979C7.97879 12.4648 8.71186 11.7317 9.43961 11.004C8.70655 10.2709 7.97879 9.54315 7.24573 8.81008C6.51266 9.54315 5.78491 10.2709 5.05184 11.004C5.78491 11.737 6.51266 12.4648 7.24573 13.1979Z" fill="#00ABFF"/>
<path d="M11.9312 12.6133C11.7878 12.7567 11.6443 12.9002 11.5009 13.0436C11.3469 12.8896 11.1981 12.7408 11.0441 12.5868C10.7466 12.8842 10.4598 13.1711 10.1623 13.4686C10.3163 13.6226 10.4651 13.7714 10.6191 13.9254C10.4704 14.0741 10.327 14.2176 10.1782 14.3663C10.0242 14.2123 9.87543 14.0635 9.72138 13.9095C9.42921 14.2069 9.13705 14.4938 8.83957 14.7913C8.98831 14.94 9.14236 15.0941 9.29641 15.2481C9.14767 15.3968 9.00425 15.5403 8.86082 15.689C8.55272 15.3809 8.24462 15.0728 7.93652 14.7647C8.95644 13.7448 9.98167 12.7196 11.0069 11.6943C11.3097 11.9918 11.6178 12.2946 11.9312 12.6133Z" fill="#00ABFF"/>
<path d="M11.0014 17.83C10.6933 17.5219 10.3852 17.2138 10.0771 16.9057C10.2259 16.757 10.3746 16.6082 10.534 16.4489C10.688 16.6029 10.8368 16.7517 10.9961 16.911C11.5592 16.348 12.117 15.7902 12.6747 15.2324C12.8341 15.3918 12.9828 15.5405 13.1422 15.6999C12.4251 16.4011 11.7186 17.1129 11.0014 17.83Z" fill="#00ABFF"/>
<path d="M11.5433 13.8252C11.8514 14.1333 12.1595 14.4414 12.4676 14.7495C12.3189 14.8982 12.1754 15.0417 12.0267 15.1904C11.878 15.0417 11.7239 14.8876 11.5699 14.7336C11.4211 14.8823 11.2777 15.031 11.1236 15.1798C11.2724 15.3285 11.4264 15.4826 11.5805 15.6366C11.4317 15.7853 11.2883 15.9288 11.1343 16.0828C10.8262 15.7747 10.5234 15.4719 10.21 15.1585C10.6509 14.7176 11.0918 14.2767 11.5433 13.8252Z" fill="#00ABFF"/>
<path d="M12.3452 13.0225C12.6533 13.3306 12.9614 13.6387 13.2695 13.9468C13.1367 14.0796 13.0093 14.2071 12.8764 14.3399C12.5683 14.0318 12.2602 13.7237 11.9521 13.4156C12.0796 13.2881 12.2071 13.1606 12.3452 13.0225Z" fill="#00ABFF"/>
<path d="M13.6782 15.1475C13.5454 15.0147 13.418 14.8872 13.2852 14.7544C13.418 14.6216 13.5454 14.4941 13.6782 14.3613C13.8111 14.4941 13.9385 14.6216 14.0713 14.7544C13.9439 14.8819 13.8164 15.0094 13.6782 15.1475Z" fill="#00ABFF"/>
<path d="M9.65676 16.4913C9.52396 16.3585 9.39647 16.231 9.26367 16.0982C9.39647 15.9654 9.52396 15.8379 9.65676 15.7051C9.78425 15.8326 9.91706 15.9654 10.0499 16.0982C9.92237 16.2257 9.79488 16.3531 9.65676 16.4913Z" fill="#00ABFF"/>
<path d="M11.0013 8.71939C10.5551 8.27318 10.1142 7.83228 9.66797 7.38606C10.1142 6.93985 10.5551 6.49895 11.0013 6.05273C11.4475 6.49895 11.8884 6.93985 12.3346 7.38606L11.0013 8.71939Z" fill="#00ABFF"/>
<path d="M14.6243 9.6709C15.0706 10.1171 15.5115 10.558 15.9577 11.0042C15.5115 11.4504 15.0706 11.8913 14.6243 12.3376C14.1834 11.8967 13.7425 11.4558 13.291 11.0042C13.7319 10.5633 14.1728 10.1171 14.6243 9.6709Z" fill="#00ABFF"/>
<path d="M6.05078 10.9984L7.38411 9.66504C7.83032 10.1113 8.27122 10.5522 8.71744 10.9984C8.27654 11.4393 7.83563 11.8802 7.38411 12.3317C6.94321 11.8908 6.50231 11.4499 6.05078 10.9984Z" fill="#00ABFF"/>
</svg>
