<svg width="35" height="35" viewBox="0 0 35 35" fill="none" xmlns="http://www.w3.org/2000/svg">
<path d="M11.8125 12.25H19.25L18.686 8.75H12.3765L11.8125 12.25Z" fill="#1481DA"/>
<path d="M32.2602 24.0559C32.2602 24.0559 30.6275 22.0292 29.0951 22.1432C27.5628 22.2544 25.9666 23.7766 25.9666 23.7766L10.2031 23.6169C10.2031 23.6169 9.00597 21.7641 7.04266 21.6957C5.07935 21.6244 4.03954 23.577 4.03954 23.577L2.22217 20.8548L3.56753 17.9102L32.3286 19.1729L32.8895 23.0269L32.2602 24.0559Z" fill="black"/>
<path d="M27.5606 26.1073C26.9176 25.5743 26.4615 24.7191 26.343 23.7243C26.3224 23.5532 26.311 23.3793 26.311 23.2026C26.311 22.6097 26.4296 22.0538 26.6371 21.5664C26.6326 21.575 26.6303 21.5835 26.6257 21.5921C26.6918 21.9826 26.8127 22.3475 26.9746 22.6781C26.9472 22.8491 26.9335 23.023 26.9335 23.2026C26.9335 24.6934 27.9027 25.9049 29.0952 25.9049C30.2354 25.9049 31.1703 24.7989 31.2501 23.3993C31.4781 23.1313 31.6719 22.8178 31.8179 22.4672C31.811 22.4216 31.8019 22.3788 31.7928 22.3332C31.8498 22.6126 31.8795 22.9033 31.8795 23.2026C31.8795 23.385 31.8681 23.5646 31.8452 23.7414C31.713 24.8075 31.1931 25.7139 30.4702 26.2299C30.0644 26.5206 29.5946 26.686 29.093 26.686C28.5275 26.6831 28.0007 26.4693 27.5606 26.1073Z" fill="#17191C"/>
<path d="M29.095 19.7197C30.3925 19.7197 31.4825 20.8314 31.7926 22.3337C31.8017 22.3793 31.8108 22.422 31.8177 22.4676C31.6717 22.8183 31.4779 23.1318 31.2499 23.3998C31.2544 23.3342 31.2567 23.2686 31.2567 23.2031C31.2567 21.7123 30.2876 20.5008 29.095 20.5008C28.0461 20.5008 27.1705 21.4386 26.9744 22.6786C26.8125 22.3479 26.6939 21.9831 26.6255 21.5925C26.63 21.584 26.6323 21.5754 26.6369 21.5669C27.1066 20.4666 28.0301 19.7197 29.095 19.7197Z" fill="#282F39"/>
<path d="M26.979 23.1999C26.979 24.6594 27.9299 25.8481 29.0974 25.8481C30.2649 25.8481 31.2157 24.6594 31.2157 23.1999C31.2157 21.7404 30.2649 20.5518 29.0974 20.5518C27.9276 20.5546 26.979 21.7404 26.979 23.1999ZM28.5592 21.0306L28.8215 22.1994C28.696 22.2535 28.5843 22.339 28.4931 22.4559L27.8159 21.5894C28.0234 21.3328 28.2765 21.139 28.5592 21.0306ZM29.0951 22.8322C29.257 22.8322 29.3893 22.9975 29.3893 23.1999C29.3893 23.4023 29.257 23.5676 29.0951 23.5676C28.9332 23.5676 28.8009 23.4023 28.8009 23.1999C28.8009 22.9975 28.9332 22.8322 29.0951 22.8322ZM29.5169 20.9907L29.2775 22.1652C29.2182 22.1481 29.1589 22.1395 29.0951 22.1395C29.0153 22.1395 28.9378 22.1538 28.8648 22.1794L28.6026 21.0135C28.7599 20.9594 28.9241 20.928 29.0974 20.928C29.241 20.9309 29.3824 20.9508 29.5169 20.9907ZM30.3903 21.6093L29.6971 22.4559C29.5945 22.3276 29.4645 22.2307 29.3208 22.1823L29.5603 21.0078C29.8795 21.1105 30.1645 21.3214 30.3903 21.6093ZM30.8577 22.6498L29.9183 22.9491C29.8841 22.778 29.8179 22.6212 29.7267 22.4958L30.4199 21.6492C30.6297 21.9257 30.7825 22.2706 30.8577 22.6498ZM30.8395 23.8356L29.9069 23.5078C29.9297 23.4108 29.9434 23.3082 29.9434 23.2028C29.9434 23.1343 29.9388 23.0688 29.9274 23.0061L30.8669 22.7068C30.8965 22.8664 30.9102 23.0317 30.9102 23.2028C30.9125 23.4222 30.8874 23.6332 30.8395 23.8356ZM30.3538 24.839L29.6766 23.9724C29.7723 23.8584 29.8453 23.7187 29.8909 23.5619L30.8258 23.8897C30.7346 24.2546 30.5704 24.5796 30.3538 24.839ZM29.5854 25.3891L29.3231 24.2232C29.444 24.1805 29.5534 24.1092 29.6446 24.0095L30.3219 24.8789C30.1144 25.1126 29.8635 25.2893 29.5854 25.3891ZM28.6618 25.4062L28.9013 24.2318C28.9628 24.2489 29.029 24.2603 29.0951 24.2603C29.1589 24.2603 29.2205 24.2518 29.2798 24.2346L29.542 25.4034C29.3984 25.449 29.2502 25.4718 29.0951 25.4718C28.9469 25.4718 28.8009 25.449 28.6618 25.4062ZM27.8204 24.819L28.5136 23.9724C28.6094 24.0864 28.728 24.1719 28.8579 24.2175L28.6185 25.392C28.3152 25.2893 28.0416 25.0898 27.8204 24.819ZM27.3484 23.8242L28.2879 23.5249C28.3266 23.6788 28.3951 23.8185 28.484 23.9325L27.7908 24.7791C27.5856 24.514 27.4328 24.189 27.3484 23.8242ZM27.3324 22.6583L28.2651 22.9861C28.2537 23.0545 28.2468 23.1258 28.2468 23.1999C28.2468 23.294 28.2582 23.3852 28.2765 23.4707L27.337 23.77C27.2982 23.5876 27.28 23.3966 27.28 23.1999C27.28 23.0146 27.2982 22.8322 27.3324 22.6583ZM27.3416 22.6041C27.4214 22.2307 27.5764 21.8972 27.7862 21.6264L28.4635 22.4958C28.3745 22.6184 28.3107 22.7695 28.2742 22.9348L27.3416 22.6041Z" fill="#989B9E"/>
<path d="M26.9746 22.6759C26.9473 22.8469 26.9336 23.0208 26.9336 23.2004C26.9336 24.6912 27.9027 25.9027 29.0953 25.9027C30.2354 25.9027 31.1703 24.7967 31.2501 23.397C31.2547 23.3315 31.257 23.2659 31.257 23.2004C31.257 21.7095 30.2879 20.498 29.0953 20.498C28.0486 20.498 27.1707 21.4359 26.9746 22.6759ZM26.9792 23.2004C26.9792 21.7409 27.9301 20.5522 29.0976 20.5522C30.2651 20.5522 31.2159 21.7409 31.2159 23.2004C31.2159 24.6598 30.2651 25.8485 29.0976 25.8485C27.9278 25.8485 26.9792 24.6598 26.9792 23.2004Z" fill="#545759"/>
<path d="M29.6443 24.0068L30.3215 24.8762C30.114 25.1128 29.8632 25.2896 29.585 25.3893L29.3228 24.2235C29.4436 24.1807 29.5508 24.1066 29.6443 24.0068Z" fill="black"/>
<path d="M29.8931 23.5596L30.828 23.8874C30.7345 24.2523 30.5703 24.5772 30.3559 24.8366L29.6787 23.97C29.7722 23.8589 29.8475 23.7163 29.8931 23.5596Z" fill="black"/>
<path d="M29.0949 24.2609C29.1587 24.2609 29.2203 24.2524 29.2796 24.2353L29.5418 25.404C29.3981 25.4496 29.2499 25.4724 29.0949 25.4724C28.9467 25.4724 28.8007 25.4496 28.6616 25.4068L28.901 24.2324C28.9649 24.2495 29.0287 24.2609 29.0949 24.2609Z" fill="black"/>
<path d="M29.9435 23.2001C29.9435 23.1317 29.939 23.0661 29.9276 23.0034L30.8671 22.7041C30.8967 22.8637 30.9104 23.0291 30.9104 23.2001C30.9104 23.4196 30.8853 23.6334 30.8374 23.8329L29.9048 23.5051C29.9299 23.411 29.9435 23.3084 29.9435 23.2001Z" fill="black"/>
<path d="M28.4837 23.933L27.7905 24.7796C27.5853 24.5145 27.4325 24.1896 27.3481 23.8247L28.2876 23.5254C28.3287 23.6822 28.3948 23.819 28.4837 23.933Z" fill="black"/>
<path d="M29.0951 22.1421C29.0153 22.1421 28.9377 22.1564 28.8648 22.182L28.6025 21.0162C28.7599 20.962 28.9241 20.9307 29.0974 20.9307C29.2433 20.9307 29.3824 20.9535 29.5192 20.9934L29.2798 22.1678C29.2182 22.1507 29.1589 22.1421 29.0951 22.1421Z" fill="black"/>
<path d="M29.7266 22.496L30.4198 21.6494C30.6273 21.9259 30.78 22.2708 30.8576 22.65L29.9181 22.9493C29.8839 22.7782 29.8178 22.6243 29.7266 22.496Z" fill="black"/>
<path d="M29.3208 22.1793L29.5602 21.0049C29.8795 21.1104 30.1668 21.3213 30.3902 21.6092L29.697 22.4558C29.5944 22.3247 29.4645 22.2306 29.3208 22.1793Z" fill="black"/>
<path d="M28.2466 23.1998C28.2466 23.2939 28.258 23.3851 28.2763 23.4706L27.3368 23.7699C27.298 23.5875 27.2798 23.3965 27.2798 23.1998C27.2798 23.0117 27.298 22.8321 27.3322 22.6582L28.2649 22.986C28.2535 23.0573 28.2466 23.1285 28.2466 23.1998Z" fill="black"/>
<path d="M28.8603 24.2178L28.6208 25.3922C28.3153 25.2896 28.0417 25.0872 27.8228 24.8193L28.516 23.9727C28.6117 24.0867 28.728 24.1722 28.8603 24.2178Z" fill="black"/>
<path d="M28.4932 22.4537L27.8159 21.5871C28.0211 21.3334 28.2743 21.1396 28.557 21.0312L28.8192 22.2C28.6961 22.2513 28.5844 22.3396 28.4932 22.4537Z" fill="black"/>
<path d="M28.4632 22.4964C28.3743 22.6189 28.3104 22.77 28.2739 22.9353L27.3413 22.6047C27.4211 22.2313 27.5762 21.8978 27.786 21.627L28.4632 22.4964Z" fill="black"/>
<path d="M29.0951 22.8896C29.2342 22.8896 29.3459 23.0293 29.3459 23.2032C29.3459 23.3771 29.2342 23.5168 29.0951 23.5168C28.956 23.5168 28.8442 23.3771 28.8442 23.2032C28.8442 23.0293 28.9583 22.8896 29.0951 22.8896Z" fill="#989B9E"/>
<path d="M28.8008 23.1998C28.8008 23.4021 28.933 23.5675 29.0949 23.5675C29.2568 23.5675 29.3891 23.4021 29.3891 23.1998C29.3891 22.9974 29.2568 22.832 29.0949 22.832C28.933 22.832 28.8008 22.9974 28.8008 23.1998ZM28.8441 23.1998C28.8441 23.0259 28.9558 22.8862 29.0949 22.8862C29.234 22.8862 29.3458 23.0259 29.3458 23.1998C29.3458 23.3736 29.234 23.5133 29.0949 23.5133C28.9581 23.5133 28.8441 23.3736 28.8441 23.1998Z" fill="#545759"/>
<path d="M5.52644 26.1073C4.88341 25.5743 4.42735 24.7191 4.30878 23.7243C4.28826 23.5532 4.27686 23.3793 4.27686 23.2026C4.27686 22.6097 4.39543 22.0538 4.60293 21.5664C4.59837 21.575 4.59609 21.5835 4.59153 21.5921C4.65766 21.9826 4.77851 22.3475 4.94041 22.6781C4.91305 22.8491 4.89937 23.023 4.89937 23.2026C4.89937 24.6934 5.86848 25.9049 7.06106 25.9049C8.2012 25.9049 9.13611 24.7989 9.21592 23.3993C9.44395 23.1313 9.63777 22.8178 9.78371 22.4672C9.77686 22.4216 9.76774 22.3788 9.75862 22.3332C9.81563 22.6126 9.84527 22.9033 9.84527 23.2026C9.84527 23.385 9.83387 23.5646 9.81107 23.7414C9.67881 24.8075 9.15891 25.7139 8.43607 26.2299C8.03018 26.5206 7.56044 26.686 7.05878 26.686C6.49556 26.6831 5.96653 26.4693 5.52644 26.1073Z" fill="#17191C"/>
<path d="M7.06328 19.7197C8.36076 19.7197 9.45072 20.8314 9.76084 22.3337C9.76996 22.3793 9.77908 22.422 9.78592 22.4676C9.63999 22.8183 9.44616 23.1318 9.21814 23.3998C9.2227 23.3342 9.22498 23.2686 9.22498 23.2031C9.22498 21.7123 8.25586 20.5008 7.06328 20.5008C6.01436 20.5008 5.13873 21.4386 4.94263 22.6786C4.78073 22.3479 4.66216 21.9831 4.59375 21.5925C4.59831 21.584 4.60059 21.5754 4.60515 21.5669C5.07261 20.4666 5.9984 19.7197 7.06328 19.7197Z" fill="#282F39"/>
<path d="M4.94531 23.1999C4.94531 24.6594 5.89618 25.8481 7.06368 25.8481C8.23118 25.8481 9.18205 24.6594 9.18205 23.1999C9.18205 21.7404 8.23118 20.5518 7.06368 20.5518C5.89618 20.5546 4.94531 21.7404 4.94531 23.1999ZM6.52782 21.0306L6.79005 22.1994C6.66464 22.2535 6.5529 22.339 6.46169 22.4559L5.78445 21.5894C5.98968 21.3328 6.24279 21.139 6.52782 21.0306ZM7.06368 22.8322C7.22558 22.8322 7.35784 22.9975 7.35784 23.1999C7.35784 23.4023 7.22558 23.5676 7.06368 23.5676C6.90178 23.5676 6.76953 23.4023 6.76953 23.1999C6.76953 22.9975 6.90178 22.8322 7.06368 22.8322ZM7.48325 20.9907L7.24382 22.1652C7.18454 22.1481 7.12525 22.1395 7.0614 22.1395C6.98159 22.1395 6.90406 22.1538 6.8311 22.1794L6.56886 21.0164C6.7262 20.9622 6.89038 20.9309 7.06368 20.9309C7.20734 20.9309 7.34872 20.9508 7.48325 20.9907ZM8.35888 21.6093L7.66567 22.4559C7.56306 22.3276 7.43309 22.2307 7.28943 22.1823L7.52886 21.0078C7.8481 21.1105 8.13313 21.3214 8.35888 21.6093ZM8.82633 22.6498L7.88686 22.9491C7.85266 22.778 7.78653 22.6212 7.69532 22.4958L8.38852 21.6492C8.59602 21.9257 8.7488 22.2706 8.82633 22.6498ZM8.80809 23.8356L7.87546 23.5078C7.89826 23.4108 7.91194 23.3082 7.91194 23.2028C7.91194 23.1343 7.90738 23.0688 7.89598 23.0061L8.83545 22.7068C8.8651 22.8664 8.87878 23.0317 8.87878 23.2028C8.87878 23.4222 8.85369 23.6332 8.80809 23.8356ZM8.32239 24.839L7.64515 23.9724C7.74092 23.8584 7.81389 23.7187 7.8595 23.5619L8.79441 23.8897C8.7032 24.2546 8.53674 24.5796 8.32239 24.839ZM7.55394 25.3891L7.29171 24.2232C7.41256 24.1805 7.52202 24.1092 7.61323 24.0095L8.29047 24.8789C8.08296 25.1126 7.83213 25.2893 7.55394 25.3891ZM6.63043 25.4062L6.86986 24.2318C6.93143 24.2489 6.99756 24.2603 7.06368 24.2603C7.12753 24.2603 7.1891 24.2518 7.24838 24.2346L7.51062 25.4034C7.36696 25.449 7.21874 25.4718 7.06368 25.4718C6.91319 25.4718 6.76953 25.449 6.63043 25.4062ZM5.78901 24.819L6.48221 23.9724C6.57799 24.0864 6.69656 24.1719 6.82653 24.2175L6.58711 25.392C6.28155 25.2893 6.00792 25.0898 5.78901 24.819ZM5.317 23.8242L6.25647 23.5249C6.29523 23.6788 6.36364 23.8185 6.45257 23.9325L5.75937 24.7791C5.55414 24.514 5.39909 24.189 5.317 23.8242ZM5.29875 22.6583L6.23138 22.9861C6.21998 23.0545 6.21314 23.1258 6.21314 23.1999C6.21314 23.294 6.22454 23.3852 6.24279 23.4707L5.3056 23.7729C5.26683 23.5904 5.24859 23.3994 5.24859 23.2028C5.24631 23.0146 5.26455 22.8322 5.29875 22.6583ZM5.31016 22.6041C5.38996 22.2307 5.54502 21.8972 5.75481 21.6264L6.43205 22.4958C6.34312 22.6184 6.27927 22.7695 6.24279 22.9348L5.31016 22.6041Z" fill="#989B9E"/>
<path d="M4.9429 22.6759C4.91554 22.8469 4.90186 23.0208 4.90186 23.2004C4.90186 24.6912 5.87097 25.9027 7.06355 25.9027C8.20369 25.9027 9.1386 24.7967 9.21841 23.397C9.22297 23.3315 9.22525 23.2659 9.22525 23.2004C9.22525 21.7095 8.25613 20.498 7.06355 20.498C6.01463 20.498 5.139 21.4359 4.9429 22.6759ZM4.94518 23.2004C4.94518 21.7409 5.89605 20.5522 7.06355 20.5522C8.23105 20.5522 9.18192 21.7409 9.18192 23.2004C9.18192 24.6598 8.23105 25.8485 7.06355 25.8485C5.89605 25.8485 4.94518 24.6598 4.94518 23.2004Z" fill="#545759"/>
<path d="M7.61302 24.0068L8.29026 24.8762C8.08276 25.1128 7.83193 25.2896 7.55373 25.3893L7.2915 24.2235C7.41008 24.1807 7.51953 24.1066 7.61302 24.0068Z" fill="black"/>
<path d="M7.85936 23.5596L8.79428 23.8874C8.70078 24.2523 8.5366 24.5772 8.32226 24.8366L7.64502 23.97C7.74079 23.8589 7.81376 23.7163 7.85936 23.5596Z" fill="black"/>
<path d="M7.06362 24.2609C7.12747 24.2609 7.18904 24.2524 7.24832 24.2353L7.51055 25.404C7.3669 25.4496 7.21868 25.4724 7.06362 25.4724C6.9154 25.4724 6.76947 25.4496 6.63037 25.4068L6.8698 24.2324C6.93137 24.2495 6.99749 24.2609 7.06362 24.2609Z" fill="black"/>
<path d="M7.91132 23.2001C7.91132 23.1317 7.90676 23.0661 7.89536 23.0034L8.83483 22.7041C8.86448 22.8637 8.87816 23.0291 8.87816 23.2001C8.87816 23.4196 8.85307 23.6334 8.80519 23.8329L7.87256 23.5051C7.89764 23.411 7.91132 23.3084 7.91132 23.2001Z" fill="black"/>
<path d="M6.45247 23.933L5.75927 24.7796C5.55404 24.5145 5.40126 24.1896 5.31689 23.8247L6.25637 23.5254C6.29513 23.6822 6.36354 23.819 6.45247 23.933Z" fill="black"/>
<path d="M7.06318 22.1421C6.98337 22.1421 6.90584 22.1564 6.83287 22.182L6.56836 21.0162C6.7257 20.962 6.88988 20.9307 7.06318 20.9307C7.20912 20.9307 7.34821 20.9535 7.48503 20.9934L7.2456 22.1678C7.18631 22.1507 7.12475 22.1421 7.06318 22.1421Z" fill="black"/>
<path d="M7.69482 22.496L8.38803 21.6494C8.59553 21.9259 8.74831 22.2708 8.82584 22.65L7.88637 22.9493C7.85216 22.7782 7.78603 22.6243 7.69482 22.496Z" fill="black"/>
<path d="M7.28662 22.1793L7.52605 21.0049C7.84529 21.1104 8.1326 21.3213 8.35607 21.6092L7.66287 22.4558C7.56253 22.3247 7.43256 22.2306 7.28662 22.1793Z" fill="black"/>
<path d="M6.21488 23.1999C6.21488 23.294 6.22628 23.3852 6.24452 23.4707L5.30505 23.7728C5.26629 23.5904 5.24805 23.3994 5.24805 23.2027C5.24805 23.0146 5.26629 22.835 5.30049 22.6611L6.23312 22.9889C6.22172 23.0574 6.21488 23.1286 6.21488 23.1999Z" fill="black"/>
<path d="M6.8261 24.2178L6.58667 25.3922C6.28111 25.2896 6.00748 25.0872 5.78857 24.8193L6.48178 23.9727C6.57983 24.0867 6.69612 24.1722 6.8261 24.2178Z" fill="black"/>
<path d="M6.46142 22.4537L5.78418 21.5871C5.9894 21.3334 6.24251 21.1396 6.52527 21.0312L6.7875 22.2C6.66436 22.2513 6.55263 22.3396 6.46142 22.4537Z" fill="black"/>
<path d="M6.43195 22.4964C6.34302 22.6189 6.27917 22.77 6.24269 22.9353L5.31006 22.6047C5.38987 22.2313 5.54493 21.8978 5.75471 21.627L6.43195 22.4964Z" fill="black"/>
<path d="M7.06333 22.8896C7.20243 22.8896 7.31416 23.0293 7.31416 23.2032C7.31416 23.3771 7.20243 23.5168 7.06333 23.5168C6.92423 23.5168 6.8125 23.3771 6.8125 23.2032C6.8125 23.0293 6.92423 22.8896 7.06333 22.8896Z" fill="#989B9E"/>
<path d="M6.76904 23.1998C6.76904 23.4021 6.9013 23.5675 7.0632 23.5675C7.2251 23.5675 7.35735 23.4021 7.35735 23.1998C7.35735 22.9974 7.2251 22.832 7.0632 22.832C6.9013 22.832 6.76904 22.9974 6.76904 23.1998ZM6.81237 23.1998C6.81237 23.0259 6.9241 22.8862 7.0632 22.8862C7.20229 22.8862 7.31403 23.0259 7.31403 23.1998C7.31403 23.3736 7.20229 23.5133 7.0632 23.5133C6.9241 23.5133 6.81237 23.3736 6.81237 23.1998Z" fill="#545759"/>
<path d="M25.969 23.7764L10.2055 23.6168C10.2055 23.6168 10.2375 19.6432 7.15454 19.3638C4.0739 19.0788 4.04197 23.5741 4.04197 23.5741C4.04197 23.5741 0.701378 23.0125 0.347936 22.9327C-0.00550567 22.8529 -0.0374294 21.8495 0.0264181 21.0057C0.0925459 20.162 1.11867 16.6729 1.11867 16.6729C1.11867 16.6729 0.990972 15.8292 1.15059 15.5498C1.31021 15.2676 3.7501 15.1878 3.7501 15.1878C3.7501 15.1878 8.27643 12.5795 11.0698 11.9382C13.8631 11.2968 19.3517 11.8185 20.9251 12.5795C22.4985 13.3435 25.6452 15.5498 26.4798 15.8691C27.3144 16.1912 31.9707 16.8325 32.9649 17.6335C33.9591 18.4374 34.666 19.5206 34.8598 20.6437C35.0514 21.7668 34.9875 23.5341 34.9875 23.5341C34.9875 23.5341 33.8633 24.1356 32.258 24.0558C32.258 24.0558 32.4838 19.5206 29.2732 19.2812C26.0306 19.036 25.969 23.7764 25.969 23.7764Z" fill="#F7D035"/>
<path d="M25.969 23.7764L10.2055 23.6168C10.2055 23.6168 10.2443 19.4294 7.15454 19.3638C3.87779 19.2897 4.04197 23.5741 4.04197 23.5741C4.04197 23.5741 0.701378 23.0125 0.347936 22.9327C-0.00550567 22.8529 -0.0374294 21.8495 0.0264181 21.0057C0.0925459 20.162 1.11867 16.6729 1.11867 16.6729C1.11867 16.6729 0.990972 15.8292 1.15059 15.5498C1.31021 15.2676 3.7501 15.1878 3.7501 15.1878C3.7501 15.1878 8.27643 12.5795 11.0698 11.9382C13.8631 11.2968 19.3517 11.8185 20.9251 12.5795C22.4985 13.3435 25.6452 15.5498 26.4798 15.8691C27.3144 16.1912 31.9707 16.8325 32.9649 17.6335C33.9591 18.4374 34.666 19.5206 34.8598 20.6437C35.0514 21.7668 34.9875 23.5341 34.9875 23.5341C34.9875 23.5341 33.8633 24.1356 32.258 24.0558C32.258 24.0558 32.4838 19.5206 29.2732 19.2812C26.0306 19.036 25.969 23.7764 25.969 23.7764Z" fill="#DDDDDD"/>
<path d="M32.55 19.7225C32.55 19.7225 32.4542 18.9187 31.9731 18.4369C31.492 17.9552 31.6835 17.6331 32.2627 17.7556C32.8396 17.8754 33.7084 18.2773 34.1895 19.7624C34.1872 19.7624 33.4484 19.922 32.55 19.7225Z" fill="#E8F2F4"/>
<path d="M25.5176 16.3905C25.5176 16.3905 22.7243 14.0616 20.0609 12.9784C17.3953 11.8952 11.7128 12.4966 10.4929 12.8188C9.27295 13.1409 7.28228 14.0616 7.21843 14.3438C7.15458 14.626 8.27876 15.5866 8.69605 15.7092C9.11334 15.8289 25.1984 16.6328 25.1984 16.6328C25.1984 16.6328 25.5518 16.59 25.5176 16.3905Z" fill="black"/>
<path d="M30.3014 17.5141L1.11852 16.6732L1.0752 15.9121L29.3072 17.0723L30.3014 17.5141Z" fill="#E5E5E5"/>
<path d="M17.8784 17.6762C16.9481 17.6163 17.1396 18.7195 17.8465 18.7195C18.5534 18.7195 18.4873 17.7161 17.8784 17.6762Z" fill="#B9B9B9"/>
<path d="M18.9364 18.1495C18.9364 18.3262 18.4553 18.3576 17.9422 18.3576C17.4292 18.3576 16.7861 18.3576 16.7861 18.1495C16.7861 17.9414 17.4292 17.9414 17.8465 17.9414C18.2637 17.9414 18.9364 17.9728 18.9364 18.1495Z" fill="#E8F2F4"/>
<path d="M10.0481 17.3138C9.11778 17.2426 9.30248 18.3514 10.0094 18.3571C10.7163 18.3628 10.657 17.3594 10.0481 17.3138Z" fill="#B9B9B9"/>
<path d="M11.1039 17.8903C11.1016 18.067 10.6205 18.0955 10.1074 18.0898C9.59438 18.087 8.95134 18.0813 8.95362 17.8732C8.9559 17.6651 9.59666 17.6708 10.0139 17.6736C10.4312 17.6793 11.1039 17.7135 11.1039 17.8903Z" fill="#E8F2F4"/>
<path d="M10.1055 22.6133L26.0309 23.0095C25.9716 23.4656 25.967 23.7734 25.967 23.7734L10.2035 23.6138C10.2058 23.6138 10.2081 23.1919 10.1055 22.6133Z" fill="#1481DA"/>
<path d="M4.04215 23.5746C4.04215 23.5746 0.703833 23.013 0.350391 22.9332C0.0835993 22.8733 -0.000770636 22.2947 0.00150963 21.6533C0.126924 21.8215 0.318467 21.9925 0.605781 22.0895C1.21689 22.2975 3.50856 22.6254 4.11512 22.7109C4.04443 23.2183 4.04215 23.5746 4.04215 23.5746Z" fill="#1481DA"/>
<path d="M34.9897 23.534C34.9897 23.534 33.8655 24.1355 32.2602 24.0556C32.2602 24.0556 32.2967 23.3145 32.1279 22.4137C32.5019 22.3653 32.9397 22.2912 33.4163 22.1686C34.8278 21.8066 34.862 20.6436 34.862 20.6436C35.0535 21.7695 34.9897 23.534 34.9897 23.534Z" fill="#1481DA"/>
<path d="M8.31738 15.527L9.37087 13.1753C9.75851 13.0271 10.1439 12.896 10.4722 12.8076L9.34578 15.7921C8.97182 15.7636 8.74379 15.7437 8.69819 15.7294C8.60242 15.7009 8.4656 15.6268 8.31738 15.527Z" fill="#ADA5B0"/>
<path d="M8.6961 15.778C8.68698 15.778 8.67786 15.7752 8.66874 15.7695C8.64137 15.7524 8.63225 15.7096 8.64593 15.6754L9.81571 12.9817C9.82939 12.9475 9.8636 12.9361 9.89096 12.9532C9.91832 12.9703 9.92745 13.013 9.91376 13.0472L8.74399 15.741C8.73486 15.7666 8.71662 15.778 8.6961 15.778Z" fill="#E5E5E5"/>
<path d="M23.6111 16.8663C23.659 16.8663 23.7092 16.8378 23.7411 16.7865L24.2952 15.863C24.3477 15.7746 24.334 15.6492 24.2633 15.5808C24.1926 15.5152 24.0923 15.5323 24.0376 15.6207L23.4835 16.5442C23.431 16.6326 23.4447 16.758 23.5154 16.8264C23.545 16.8549 23.5792 16.8663 23.6111 16.8663Z" fill="#383D4A"/>
<path d="M23.0299 14.9744L23.0527 15.8011C23.0573 15.9607 23.1553 16.0861 23.283 16.1004C23.6707 16.1375 24.4255 16.1232 24.4255 15.4704C24.4255 14.6865 23.6661 14.6324 23.2648 14.658C23.1303 14.6637 23.0254 14.8034 23.0299 14.9744Z" fill="#383D4A"/>
<path d="M22.5331 16.4966C20.9415 16.4168 18.8276 16.3056 16.7321 16.1944L16.3057 13.4209C16.3057 13.4209 18.3283 13.3011 19.7397 13.8627C20.9757 14.353 22.2366 16.0747 22.5331 16.4966Z" fill="#273033"/>
<path d="M11.6172 13.8618C12.3879 13.42 14.9555 13.4599 14.9555 13.4599L14.9258 16.0967C13.3456 16.0111 11.8725 15.9285 10.7529 15.8601C10.778 15.595 10.9262 14.2581 11.6172 13.8618Z" fill="#273033"/>
<path d="M16.3373 12.3484C16.0249 12.337 15.7079 12.3341 15.3955 12.337L15.4502 16.1424L16.9757 16.2165L16.3373 12.3484Z" fill="#ADA5B0"/>
<path d="M16.2414 16.26C16.2141 16.26 16.189 16.2343 16.1867 16.1973L15.8219 12.4146C15.8173 12.3775 15.8401 12.3405 15.8698 12.3376C15.9017 12.3319 15.929 12.3604 15.9313 12.3975L16.2962 16.1802C16.3007 16.2172 16.2779 16.2543 16.2483 16.2571C16.246 16.26 16.2437 16.26 16.2414 16.26Z" fill="white"/>
<path d="M31.9706 18.4376C31.9341 18.4005 31.9022 18.3663 31.8726 18.3321C32.2192 18.2837 32.5772 18.2837 32.8599 18.5203C33.0104 18.6485 33.1267 18.8338 33.2179 19.0305C33.3319 19.2728 33.4163 19.5436 33.4186 19.823C33.1655 19.8201 32.869 19.7945 32.5498 19.7232C32.5498 19.7232 32.454 18.9193 31.9706 18.4376Z" fill="#FFFDD1"/>
<path d="M24.8586 23.7879C24.8312 23.7879 24.8084 23.7623 24.8039 23.7281C24.7993 23.691 24.8198 23.654 24.8495 23.6483C24.8609 23.6454 25.1254 23.5856 25.2417 23.2264C25.3625 22.8473 25.3511 18.0555 25.3215 17.5966C25.2918 17.1405 25.0273 16.7272 25.025 16.7243C25.0045 16.693 25.0091 16.6502 25.0342 16.6246C25.0592 16.5989 25.0935 16.6046 25.114 16.636C25.1254 16.6531 25.4013 17.0892 25.4355 17.5852C25.4651 18.0185 25.4857 22.8473 25.3488 23.2777C25.2097 23.711 24.8859 23.7822 24.8723 23.7851C24.8654 23.7879 24.8631 23.7879 24.8586 23.7879Z" fill="#1481DA"/>
<path d="M16.1778 23.6765C16.171 23.6765 16.1641 23.6765 16.1596 23.6736C16.1299 23.6594 16.1162 23.6195 16.1254 23.5853C16.1276 23.5796 16.2667 23.0921 16.2964 22.7044C16.3237 22.3738 16.399 17.9013 16.3693 16.6471C16.3671 16.5017 16.2462 16.305 16.1983 16.2394C16.1778 16.2109 16.1801 16.1653 16.2029 16.1397C16.2257 16.114 16.2622 16.1169 16.2827 16.1454C16.2895 16.1568 16.4765 16.419 16.4811 16.6414C16.5107 17.8984 16.4332 22.3852 16.4081 22.7158C16.3762 23.1206 16.2371 23.6109 16.2302 23.6309C16.2211 23.6594 16.2006 23.6765 16.1778 23.6765Z" fill="#1481DA"/>
<path d="M11.699 23.6198C11.6831 23.6198 11.6671 23.6112 11.6557 23.5941C11.6192 23.54 8.08252 18.1182 8.08252 17.5225C8.08252 16.8811 8.59558 15.7665 8.61838 15.7181C8.63434 15.6839 8.66855 15.6725 8.69591 15.6924C8.72328 15.7124 8.7324 15.7551 8.71643 15.7894C8.71187 15.8008 8.19653 16.9182 8.19653 17.5225C8.19653 17.9444 10.6319 21.8068 11.7446 23.5058C11.7652 23.5371 11.7606 23.5799 11.7378 23.6055C11.7241 23.6141 11.7104 23.6198 11.699 23.6198Z" fill="#1481DA"/>
<path d="M13.4552 10.9316H13.1718V9.82996H12.6875V9.62891H13.9395V9.82996H13.4552V10.9316Z" fill="white"/>
<path d="M15.6449 10.9316H15.3255L15.207 10.6803H14.4702L14.3517 10.9316H14.0322L14.666 9.62891H15.0163L15.6449 10.9316ZM15.1297 10.4792L14.8412 9.8551L14.5526 10.4792H15.1297Z" fill="white"/>
<path d="M17.3559 10.9319H17.021L16.5727 10.4208L16.1245 10.9319H15.7896L16.3924 10.2617L15.8256 9.625H16.1605L16.5727 10.1025L16.9849 9.625H17.325L16.7634 10.2575L17.3559 10.9319Z" fill="white"/>
<path d="M17.9377 10.9316H17.6543V9.62891H17.9377V10.9316Z" fill="white"/>
<path d="M1.99647 19.0648C2.13784 18.5688 1.85281 18.0443 1.43096 18.0215L0.742319 17.9873C0.607783 18.4719 0.457285 19.0277 0.32959 19.538L1.38307 19.5865C1.65671 19.6007 1.90526 19.3898 1.99647 19.0648Z" fill="#FF6F57"/>
</svg>
