<svg width="23" height="22" viewBox="0 0 23 22" fill="none" xmlns="http://www.w3.org/2000/svg">
<g clip-path="url(#clip0_2188_3455)">
<path d="M22.8454 9.05609C22.9614 8.61509 23.0193 8.15571 23.0193 7.7147C23 4.55416 20.314 2 17.0097 2C13.686 2 11 4.55416 11 7.7147C11 8.17408 11.058 8.61509 11.1739 9.05609C11.3285 9.97486 11.5604 10.7282 11.8309 11.2795C12.43 12.4555 14.9034 16.3511 16.0435 18.1151C14.4976 18.2988 13.7826 18.9236 13.7826 19.53C13.7826 20.2282 14.7874 21 17.0097 21C19.2319 21 20.2367 20.2466 20.2367 19.53C20.2367 18.942 19.5217 18.2988 17.9758 18.1151C19.1159 16.3511 21.5894 12.4555 22.1884 11.2795C22.4589 10.7282 22.6715 9.99323 22.8454 9.05609ZM19.2899 19.53C19.2319 19.6954 18.4589 20.118 16.9903 20.118C15.5217 20.118 14.7488 19.6954 14.6908 19.53C14.7295 19.383 15.3671 19.0155 16.5652 18.9603C16.5845 18.9787 16.5845 18.9971 16.6039 19.0155C16.6812 19.1441 16.8357 19.2176 16.9903 19.2176C17.1449 19.2176 17.2995 19.1441 17.3768 19.0155C17.3768 19.0155 17.3961 18.9971 17.4155 18.9603C18.6135 19.0338 19.2319 19.383 19.2899 19.53ZM12.6618 10.8936C12.43 10.4159 12.2174 9.73598 12.0821 8.89072C12.0821 8.87234 12.0821 8.87234 12.0821 8.85396C11.9855 8.46808 11.9275 8.0822 11.9275 7.69632C11.9275 5.03191 14.2077 2.86364 17.0097 2.86364C19.8116 2.86364 22.0918 5.03191 22.0918 7.69632C22.0918 8.0822 22.0338 8.46808 21.9372 8.85396C21.9372 8.87234 21.9372 8.87234 21.9372 8.89072C21.8019 9.73598 21.5894 10.4159 21.3575 10.8936C20.7585 12.088 18.0338 16.3327 17.0097 17.9313C15.9855 16.3327 13.2609 12.088 12.6618 10.8936Z" fill="#444444"/>
<path d="M17.0093 4.48047C15.2315 4.48047 13.7822 5.85861 13.7822 7.54913C13.7822 9.23966 15.2315 10.6178 17.0093 10.6178C18.7871 10.6178 20.2363 9.23966 20.2363 7.54913C20.217 5.85861 18.7871 4.48047 17.0093 4.48047ZM14.7098 7.54913C14.7098 6.35474 15.7339 5.36248 17.0093 5.36248C18.2653 5.36248 19.3088 6.33637 19.3088 7.54913C19.3088 8.74353 18.2846 9.73579 17.0093 9.73579C15.7339 9.71741 14.7098 8.74353 14.7098 7.54913Z" fill="#444444"/>
</g>
<g clip-path="url(#clip1_2188_3455)">
<path d="M6.90982 4.08511C6.97746 3.82979 7.01127 3.56383 7.01127 3.30851C7 1.47872 5.43317 0 3.50564 0C1.56683 0 0 1.47872 0 3.30851C0 3.57447 0.0338164 3.82979 0.101449 4.08511C0.191626 4.61702 0.326892 5.05319 0.484702 5.37234C0.834139 6.05319 2.27697 8.30851 2.94203 9.32979C2.04026 9.43617 1.62319 9.79787 1.62319 10.1489C1.62319 10.5532 2.20934 11 3.50564 11C4.80193 11 5.38808 10.5638 5.38808 10.1489C5.38808 9.80851 4.97101 9.43617 4.06924 9.32979C4.7343 8.30851 6.17713 6.05319 6.52657 5.37234C6.68438 5.05319 6.80837 4.62766 6.90982 4.08511ZM4.83575 10.1489C4.80193 10.2447 4.35105 10.4894 3.49436 10.4894C2.63768 10.4894 2.1868 10.2447 2.15298 10.1489C2.17552 10.0638 2.5475 9.85106 3.24638 9.81915C3.25765 9.82979 3.25765 9.84042 3.26892 9.85106C3.31401 9.92553 3.40419 9.96808 3.49436 9.96808C3.58454 9.96808 3.67472 9.92553 3.71981 9.85106C3.71981 9.85106 3.73108 9.84043 3.74235 9.81915C4.44122 9.8617 4.80193 10.0638 4.83575 10.1489ZM0.969404 5.14894C0.834139 4.87234 0.710145 4.47872 0.63124 3.98936C0.63124 3.97872 0.63124 3.97872 0.63124 3.96808C0.574879 3.74468 0.541063 3.52128 0.541063 3.29787C0.541063 1.75532 1.87118 0.5 3.50564 0.5C5.1401 0.5 6.47021 1.75532 6.47021 3.29787C6.47021 3.52128 6.43639 3.74468 6.38003 3.96808C6.38003 3.97872 6.38003 3.97872 6.38003 3.98936C6.30113 4.47872 6.17713 4.87234 6.04187 5.14894C5.69243 5.84043 4.10306 8.29787 3.50564 9.2234C2.90821 8.29787 1.31884 5.84043 0.969404 5.14894Z" fill="#444444"/>
<path d="M3.50549 1.43652C2.46846 1.43652 1.62305 2.2344 1.62305 3.21312C1.62305 4.19184 2.46846 4.98972 3.50549 4.98972C4.54253 4.98972 5.38794 4.19184 5.38794 3.21312C5.37667 2.2344 4.54253 1.43652 3.50549 1.43652ZM2.16411 3.21312C2.16411 2.52163 2.76153 1.94716 3.50549 1.94716C4.23818 1.94716 4.84688 2.51099 4.84688 3.21312C4.84688 3.90461 4.24946 4.47908 3.50549 4.47908C2.76153 4.46844 2.16411 3.90461 2.16411 3.21312Z" fill="#444444"/>
</g>
<g clip-path="url(#clip2_2188_3455)">
<path d="M2.47148 12.8709C2.35933 12.8951 2.2522 12.8067 2.25723 12.694C2.22272 12.5341 2.21625 12.3682 2.22128 12.2556C2.22056 12.1163 2.2033 12.0363 2.2033 12.0363C2.20833 11.9237 2.30323 11.8195 2.42114 11.822C2.51101 11.8305 2.61238 11.8923 2.62964 11.9722C2.63539 11.9988 2.63539 11.9988 2.64114 12.0255C2.64114 12.0255 2.63683 12.2774 2.66128 12.6626C2.66128 12.6626 2.66128 12.6626 2.66703 12.6892C2.65625 12.7752 2.58364 12.8467 2.47148 12.8709Z" fill="#444444"/>
<path d="M4.98453 16.9013C5.01833 16.9219 5.05787 16.9691 5.06937 17.0224C5.08088 17.0757 5.06434 17.135 5.04205 17.1677C4.97519 17.2658 4.86304 17.2901 4.76167 17.2283C4.59271 17.1253 4.4518 17.0163 4.28284 16.9133C4.18147 16.8515 4.10814 16.7837 4.00101 16.6953C3.8601 16.5862 3.75297 16.4978 3.61206 16.3888C3.53872 16.3209 3.51572 16.2144 3.61062 16.1102C3.68323 16.0388 3.82917 16.0351 3.90251 16.103C4.08872 16.2859 4.29721 16.4361 4.53375 16.5803C4.63512 16.642 4.7365 16.7038 4.84362 16.7923C4.88316 16.8395 4.91695 16.8601 4.98453 16.9013Z" fill="#444444"/>
<path d="M7.48755 17.8947C7.57742 17.9032 7.62271 17.9771 7.63422 18.0304C7.63997 18.057 7.64572 18.0837 7.62343 18.1164C7.59036 18.2351 7.48396 18.2859 7.3603 18.2568C7.05115 18.1841 6.73625 18.0848 6.42135 17.9854C6.2639 17.9358 6.13449 17.88 5.97704 17.8303C5.97704 17.8303 5.97129 17.8037 5.94325 17.8097C5.90946 17.7892 5.88645 17.6826 5.92527 17.5905C5.96409 17.4985 6.09854 17.4416 6.19416 17.4767C6.3854 17.547 6.54285 17.5967 6.73409 17.6669C6.91958 17.7106 7.08278 17.7869 7.26827 17.8305C7.35814 17.839 7.42572 17.8802 7.48755 17.8947Z" fill="#444444"/>
<path d="M12.9092 19.6257C12.9149 19.6524 12.9487 19.673 12.9545 19.6996C12.966 19.7529 12.9494 19.8122 12.9271 19.8449C12.8603 19.943 12.7481 19.9672 12.6468 19.9055C12.5454 19.8437 12.4778 19.8025 12.3764 19.7407C12.2751 19.6789 12.1457 19.6232 12.0105 19.5408C11.8135 19.4439 11.6503 19.3676 11.4533 19.2707C11.3577 19.2355 11.3009 19.1083 11.3677 19.0102C11.4066 18.9182 11.541 18.8613 11.6424 18.9231C11.9968 19.0697 12.329 19.249 12.6273 19.4077C12.7287 19.4694 12.7963 19.5106 12.8977 19.5724C12.9034 19.5991 12.9092 19.6257 12.9092 19.6257Z" fill="#444444"/>
<path d="M10.3996 18.605C10.4053 18.6317 10.4111 18.6583 10.383 18.6644L10.3888 18.691C10.35 18.783 10.2493 18.8605 10.1257 18.8315C10.0638 18.8169 9.96822 18.7818 9.90639 18.7672C9.7209 18.7236 9.53541 18.68 9.31613 18.6158C9.13064 18.5721 8.94515 18.5285 8.76542 18.5115C8.64176 18.4825 8.59071 18.3819 8.59574 18.2693C8.62881 18.1506 8.73522 18.0997 8.85312 18.1022C9.31397 18.1979 9.74678 18.2997 10.1796 18.4015C10.2076 18.3954 10.2134 18.4221 10.2414 18.416C10.3428 18.4778 10.3881 18.5517 10.3996 18.605Z" fill="#444444"/>
<path d="M3.24673 15.2407C3.27549 15.3739 3.20863 15.472 3.12451 15.4902C3.01811 15.541 2.8887 15.4853 2.86569 15.3787C2.80314 15.2249 2.76288 15.0384 2.69457 14.8579C2.67732 14.778 2.63202 14.7041 2.60902 14.5975C2.54071 14.417 2.50045 14.2305 2.46019 14.0439C2.43718 13.9374 2.50404 13.8393 2.61619 13.8151C2.72835 13.7908 2.82972 13.8526 2.85273 13.9592C2.89299 14.1457 2.93326 14.3323 3.00156 14.5127C3.01882 14.5927 3.03607 14.6726 3.08712 14.7732C3.12163 14.933 3.18418 15.0869 3.24673 15.2407Z" fill="#444444"/>
</g>
<defs>
<clipPath id="clip0_2188_3455">
<rect width="12" height="19" fill="white" transform="translate(11 2)"/>
</clipPath>
<clipPath id="clip1_2188_3455">
<rect width="7" height="11" fill="white"/>
</clipPath>
<clipPath id="clip2_2188_3455">
<rect width="10.1409" height="9.06434" fill="white" transform="matrix(0.211001 0.977486 0.977486 -0.211001 2 11.9121)"/>
</clipPath>
</defs>
</svg>
