<svg width="15" height="22" viewBox="0 0 15 22" fill="none" xmlns="http://www.w3.org/2000/svg">
<path d="M7.19614 22C4.1798 17.7107 1.24648 13.6705 0.167238 8.68936C-0.469237 5.75604 0.748368 2.85039 3.18358 1.21769C5.59112 -0.38733 8.71815 -0.415003 11.1257 1.19002C13.5609 2.79505 14.8062 5.72837 14.1974 8.66169C13.1181 13.6428 10.2125 17.683 7.19614 22ZM9.3823 7.16736C9.3823 5.97742 8.3584 4.9812 7.16847 4.9812C5.95086 4.9812 4.98231 6.0051 4.98231 7.19503C4.98231 8.38496 6.00621 9.38118 7.19614 9.38118C8.41375 9.38118 9.40997 8.35729 9.3823 7.16736Z" fill="#FF0000"/>
</svg>
