<svg width="22" height="21" viewBox="0 0 22 21" fill="none" xmlns="http://www.w3.org/2000/svg">
<g clip-path="url(#clip0_2420_2636)">
<path d="M10.9362 13.5385C8.22685 13.5385 5.49065 13.5385 2.75444 13.5385C1.11808 13.5385 0.608398 12.9744 0.608398 11.2538C0.608398 8.2359 0.608398 5.24615 0.608398 2.22821C0.635224 0.592308 1.14491 0 2.70079 0C8.2805 0 13.8602 0 19.4667 0C20.9958 0 21.5323 0.592308 21.5323 2.22821C21.5591 5.24615 21.5323 8.2359 21.5323 11.2538C21.5323 12.9744 20.9958 13.5385 19.3863 13.5385C16.5696 13.5385 13.7529 13.5385 10.9362 13.5385ZM19.896 3.63846C19.6545 3.8359 19.4131 4.03333 19.1717 4.23077C18.6352 3.61026 18.0986 2.96154 17.5621 2.34103C17.7499 2.14359 17.9377 1.91795 18.1255 1.72051C13.4042 1.72051 8.68288 1.72051 3.96159 1.72051C4.14937 1.94615 4.33715 2.14359 4.52493 2.36923C3.96159 2.98974 3.42508 3.61026 2.86174 4.23077C2.64714 4.00513 2.45936 3.80769 2.24476 3.58205C2.24476 5.72564 2.24476 7.89744 2.24476 10.041C2.48619 9.78718 2.72762 9.53333 2.96905 9.30769C3.50556 9.92821 4.04207 10.5769 4.57858 11.1974C4.3908 11.3949 4.20302 11.6205 3.98842 11.8179C8.70971 11.8179 13.431 11.8179 18.1523 11.8179C17.9645 11.5923 17.7767 11.3949 17.5621 11.1692C18.1255 10.5487 18.6888 9.95641 19.2253 9.3359C19.4399 9.53333 19.6277 9.75898 19.8423 9.95641C19.896 7.86923 19.896 5.75385 19.896 3.63846Z" fill="#00ABFF"/>
<path d="M19.1178 16.5C19.1178 16.3308 19.1446 15.8513 19.1714 15.3154C19.6811 15.3154 20.1371 15.3154 20.7273 15.3154C20.7273 16.4718 20.8078 17.6 20.7005 18.7C20.5932 19.9975 19.6006 20.5898 18.3667 20.0821C13.3771 17.9949 8.17295 17.0077 2.80784 16.9513C2.16403 16.9513 1.38609 16.9795 1.49339 16.0488C1.54704 15.7385 2.32498 15.3154 2.78102 15.3154C6.99263 15.3154 11.1506 15.8795 15.2012 17.2052C16.5693 17.6283 17.9106 18.277 19.1178 16.5Z" fill="#00ABFF"/>
<path d="M11.0438 10.1535C8.70998 10.1535 7.85156 9.36373 7.85156 7.22014C7.85156 5.13296 9.27332 3.44065 11.0438 3.41245C12.8411 3.38424 14.3165 5.13296 14.2897 7.27655C14.2629 9.42014 13.4044 10.1535 11.0438 10.1535Z" fill="#00ABFF"/>
<path d="M4.60507 5.64062C4.98063 6.12011 5.40984 6.45857 5.35619 6.68421C5.27571 7.02268 4.87333 7.27652 4.60507 7.55857C4.36364 7.27652 3.93443 7.02268 3.90761 6.74062C3.88078 6.48678 4.25634 6.14832 4.60507 5.64062Z" fill="#00ABFF"/>
<path d="M18.5819 6.82576C18.0991 7.16422 17.7235 7.61551 17.5358 7.53089C17.2138 7.41807 16.9992 6.96679 16.7578 6.65653C17.0261 6.43089 17.3211 6.00781 17.5894 6.00781C17.8577 6.00781 18.1259 6.43089 18.5819 6.82576Z" fill="#00ABFF"/>
</g>
<defs>
<clipPath id="clip0_2420_2636">
<rect width="20.9239" height="20.2513" fill="white" transform="translate(0.608398)"/>
</clipPath>
</defs>
</svg>
