<svg width="22" height="14" viewBox="0 0 22 14" fill="none" xmlns="http://www.w3.org/2000/svg">
<path fill-rule="evenodd" clip-rule="evenodd" d="M9.0073 7.125C9.0073 8.875 7.6323 10.125 6.0073 10.125C4.3823 10.125 2.8823 8.75 3.0073 7C3.0073 5.375 4.3823 4 6.0073 4C7.6323 4.125 9.0073 5.375 9.0073 7.125Z" fill="#1B92D0"/>
<path fill-rule="evenodd" clip-rule="evenodd" d="M6.38184 5.375L6.00684 7.75L5.63184 5.375H4.38184L5.00684 8.375C5.13184 8.75 5.13184 9 5.38184 9.125C5.50684 9.125 5.63184 9.25 6.00684 9.25C6.38184 9.25 6.50684 9.125 6.63184 9C6.75684 8.875 6.88184 8.625 6.88184 8.25L7.50684 5.25H6.38184V5.375Z" fill="white"/>
<path d="M15.6318 10.125C15.5068 10.125 15.5068 10.125 15.3818 10.125C14.8818 10.125 14.3818 9.875 14.0068 9.625H13.8818C13.7568 9.5 13.7568 9.5 13.6318 9.375C13.5068 9.25 13.3818 9.125 13.2568 9V8.75C13.5068 8.75 13.8818 8.625 14.0068 8.5C14.2568 8.375 14.2568 8.25 14.3818 8.125C14.3818 8.125 14.6318 7.875 14.6318 7.75H14.7568V7.25H15.3818C15.3818 7.125 15.3818 7.125 15.3818 7H14.7568V6.625H14.8818C14.8818 6.625 14.8818 6.625 15.0068 6.625C15.2568 6.625 15.3818 6.625 15.5068 6.625V6.375H14.6318C14.6318 6.25 14.5068 6.125 14.3818 6C14.2568 5.875 14.2568 5.875 14.1318 5.75C14.0068 5.625 13.7568 5.5 13.3818 5.5V5.375C13.5068 5.25 13.6318 5.125 13.7568 4.875C13.8818 4.75 14.0068 4.625 14.2568 4.5C14.7568 4.25 15.1318 4.125 15.6318 4H16.0068C16.5068 4 16.8818 4.125 17.2568 4.375C17.3818 4.5 17.7568 4.75 17.8818 4.875V5H17.7568C17.1318 5 16.6318 5.375 16.5068 5.625C16.2568 5.875 15.8818 6.375 15.8818 6.875C15.8818 7 15.7568 7.125 15.7568 7.25C15.6318 7.375 15.5068 7.625 15.5068 7.75H15.7568L16.0068 7.25V7.5C16.0068 7.625 16.1318 7.875 16.2568 8.125C16.3818 8.375 16.5068 8.375 16.6318 8.625C17.0068 8.875 17.3818 9.125 17.8818 9.125H18.0068V9.25C17.8818 9.375 17.6318 9.625 17.5068 9.625C17.0068 9.875 16.6318 10 16.0068 10.125H15.6318ZM13.3818 8.875C13.5068 9 13.5068 9.125 13.6318 9.125C13.7568 9.25 13.7568 9.25 13.8818 9.375H14.0068C14.3818 9.625 14.8818 9.875 15.2568 9.875C15.3818 9.875 15.3818 9.875 15.5068 9.875H15.8818C16.3818 9.875 16.7568 9.75 17.2568 9.375C17.3818 9.25 17.5068 9.25 17.6318 9.125C17.2568 9.125 16.7568 8.875 16.5068 8.625C16.3818 8.5 16.2568 8.375 16.1318 8.125C16.1318 8 16.0068 7.875 15.8818 7.75H15.3818V7.625C15.3818 7.5 15.5068 7.375 15.5068 7.125H14.8818V7.625H14.6318C14.6318 7.75 14.5068 7.875 14.3818 8C14.2568 8.125 14.2568 8.125 14.1318 8.25C14.0068 8.625 13.7568 8.75 13.3818 8.875ZM14.8818 6.875H15.5068C15.5068 7 15.5068 7.125 15.5068 7.25V7.125C15.5068 7 15.6318 6.875 15.6318 6.75C15.6318 6.25 16.0068 5.625 16.2568 5.375C16.5068 5.125 16.8818 4.875 17.5068 4.75C17.3818 4.625 17.1318 4.5 17.0068 4.375C16.6318 4.125 16.2568 4 15.7568 4H15.5068C15.0068 4 14.6318 4.125 14.1318 4.375C14.0068 4.5 13.8818 4.625 13.6318 4.75C13.5068 4.875 13.3818 5 13.2568 5.125C13.6318 5.125 13.8818 5.375 14.0068 5.5C14.1318 5.625 14.2568 5.625 14.2568 5.75C14.2568 5.75 14.3818 6 14.5068 6.125H15.3818V6.5C15.5068 6.75 15.3818 6.75 14.8818 6.875C15.0068 6.75 14.8818 6.75 14.8818 6.875Z" fill="white"/>
<path d="M17.8818 9.25C17.3818 9.25 16.8818 9 16.5068 8.75C16.3818 8.625 16.2568 8.5 16.1318 8.25C16.0068 8.125 15.8818 7.75 15.8818 7.625C15.8818 7.5 15.8818 7.5 16.0068 7.5C16.0068 7.5 16.1318 7.5 16.2568 7.5H16.3818H16.5068C16.6318 7.5 16.6318 7.625 16.6318 7.75C16.6318 7.75 16.6318 7.75 16.6318 7.875H16.8818C16.7568 7.5 16.3818 6.625 16.2568 6.375H16.0068L15.6318 7.125V6.875C15.6318 6.375 16.0068 5.75 16.2568 5.5C16.5068 5.25 17.0068 4.875 17.6318 4.875L17.7568 5L17.8818 5.125C18.0068 5.25 18.0068 5.375 18.1318 5.5C18.2568 5.75 18.3818 6 18.5068 6.25V6.375H18.3818C18.3818 6.375 18.3818 6.375 18.2568 6.375V7.75C18.2568 7.75 18.2568 7.75 18.3818 7.75H18.5068V7.875C18.3818 8.125 18.3818 8.375 18.1318 8.625C18.0068 8.875 17.8818 9 17.7568 9.125C17.8818 9.25 17.8818 9.25 17.8818 9.25ZM15.8818 7.625C15.8818 7.75 16.0068 8 16.1318 8.125C16.2568 8.375 16.3818 8.375 16.5068 8.625C16.8818 8.875 17.2568 9.125 17.7568 9.125C17.7568 9.125 17.7568 9.125 17.7568 9C17.8818 8.875 18.0068 8.75 18.1318 8.5C18.2568 8.25 18.3818 8.125 18.3818 7.875H18.2568V6.375C18.2568 6.375 18.2568 6.375 18.3818 6.375C18.3818 6.125 18.2568 5.875 18.1318 5.75C18.0068 5.625 18.0068 5.5 17.8818 5.375L17.7568 5.25L17.6318 5.125C17.0068 5.125 16.5068 5.5 16.3818 5.75C16.2568 5.875 16.0068 6.125 15.8818 6.375H16.2568C16.2568 6.5 16.8818 7.75 16.8818 7.875V8H16.3818V7.875C16.3818 7.875 16.3818 7.75 16.2568 7.75H16.1318C16.0068 7.75 16.0068 7.75 15.8818 7.75C16.0068 7.625 16.0068 7.625 15.8818 7.625C16.0068 7.625 16.0068 7.625 15.8818 7.625C16.0068 7.625 16.0068 7.625 15.8818 7.625Z" fill="white"/>
<path d="M17.7568 9.25C17.7568 9.125 17.7568 9.125 17.7568 9C17.8818 8.875 18.0068 8.75 18.1318 8.5C18.2568 8.25 18.3818 8 18.3818 7.75H19.2568V7.5H18.5068V7.125H19.1318C19.1318 7.125 19.1318 7 19.1318 6.875H18.5068V6.625H19.1318C19.1318 6.625 19.1318 6.5 19.1318 6.375H18.3818C18.3818 6.125 18.2568 5.875 18.0068 5.625C17.8818 5.5 17.8818 5.375 17.7568 5.25L17.6318 5.125L17.5068 5V4.875H17.6318C18.3818 4.875 18.8818 5.125 19.2568 5.5C19.5068 5.75 19.6318 5.875 19.7568 6.125C19.8818 6.375 19.8818 6.625 20.0068 6.875V7.125C20.0068 7.5 19.8818 7.875 19.6318 8.25C19.3818 8.5 19.0068 8.875 18.6318 9C18.3818 9.25 18.1318 9.25 17.7568 9.25ZM18.6318 7.875C18.5068 8.125 18.5068 8.375 18.3818 8.625C18.2568 8.875 18.1318 9 18.0068 9.125C18.3818 9.125 18.5068 9.125 18.7568 9C19.1318 8.875 19.5068 8.625 19.6318 8.25C19.8818 7.875 20.0068 7.5 20.0068 7.25V7C20.0068 6.75 19.8818 6.5 19.8818 6.25C19.7568 6 19.6318 5.875 19.3818 5.625C19.0068 5.25 18.5068 5 17.8818 5L18.0068 5.125C18.1318 5.25 18.1318 5.375 18.2568 5.5C18.3818 5.75 18.5068 6 18.6318 6.25H19.3818C19.3818 6.375 19.3818 6.5 19.3818 6.625H18.7568V6.75H19.3818C19.3818 6.875 19.3818 7 19.3818 7.125H18.7568V7.25H19.5068V7.75L18.6318 7.875Z" fill="white"/>
<path d="M13.2568 8.875C13.1318 8.625 12.8818 8.25 12.7568 7.875V7.75H12.8818L13.3818 6.5V7.75H13.6318V6.375H13.2568L12.8818 7.5L12.7568 6.875C12.7568 6.75 12.7568 6.75 12.7568 6.625C12.7568 6.5 12.7568 6.5 12.7568 6.375C12.7568 6.25 12.7568 6.125 12.8818 6C13.0068 5.75 13.1318 5.5 13.2568 5.25C13.6318 5.25 14.0068 5.5 14.1318 5.625C14.2568 5.75 14.3818 5.75 14.3818 5.875C14.3818 5.875 14.6318 6.125 14.6318 6.25V6.375H14.3818V7.75H14.6318V7.875C14.6318 8 14.5068 8.25 14.3818 8.25C14.2568 8.375 14.2568 8.375 14.1318 8.5C14.0068 8.625 13.6318 8.875 13.2568 8.875ZM13.0068 7.875C13.0068 8.25 13.2568 8.5 13.3818 8.75C13.6318 8.75 14.0068 8.625 14.1318 8.5C14.2568 8.375 14.2568 8.25 14.3818 8.125C14.3818 8.125 14.5068 8 14.5068 7.875H14.3818V6.25H14.5068C14.5068 6.125 14.3818 6 14.3818 6C14.2568 5.875 14.2568 5.875 14.1318 5.75C14.0068 5.625 13.7568 5.5 13.3818 5.5C13.2568 5.75 13.1318 5.875 13.0068 6.125C13.0068 6.25 12.8818 6.375 12.8818 6.5C12.8818 6.625 12.8818 6.625 12.8818 6.75C12.8818 6.875 12.8818 6.875 12.8818 7V7.125L13.1318 6.25H13.7568V7.875H13.2568V7.125L13.0068 7.875Z" fill="white"/>
<path d="M13.3818 8.875C13.0068 8.875 12.8818 8.875 12.5068 8.75C12.2568 8.625 12.0068 8.5 11.7568 8.25C11.5068 8 11.3818 7.625 11.3818 7.25V6.875C11.3818 6.625 11.5068 6.5 11.5068 6.25C11.6318 6.125 11.6318 6.125 11.7568 6C11.7568 6 11.7568 6 11.8818 5.875C11.8818 5.875 11.8818 5.875 12.0068 5.75C12.5068 5.375 12.6318 5.25 13.3818 5.25H13.5068V5.375C13.3818 5.625 13.2568 5.75 13.1318 6C13.0068 6.25 12.8818 6.375 12.8818 6.5C12.8818 6.625 12.8818 6.625 12.8818 6.75C12.8818 6.875 12.8818 6.875 12.8818 7V7.25L12.5068 6.375H12.1318V7.75H12.3818C12.3818 7.625 12.3818 7.5 12.3818 7.375V7.25V6.75H12.5068C12.5068 6.875 12.7568 7.5 12.7568 7.625H12.8818C13.0068 8.125 13.2568 8.5 13.3818 8.875ZM13.2568 5.5C12.6318 5.5 12.5068 5.625 12.0068 5.875C12.0068 5.875 12.0068 5.875 11.8818 6C11.8818 6 11.8818 6.125 11.7568 6.125C11.7568 6.125 11.7568 6.25 11.6318 6.375C11.5068 6.5 11.5068 6.75 11.5068 6.875V7.25C11.5068 7.625 11.6318 7.875 11.8818 8.125C12.0068 8.375 12.2568 8.5 12.5068 8.625C12.7568 8.75 12.8818 8.75 13.2568 8.75C13.1318 8.5 12.8818 8.25 12.8818 7.875H12.7568C12.7568 7.75 12.6318 7.5 12.5068 7.25V7.375V7.5C12.5068 7.625 12.5068 7.75 12.5068 7.875H12.0068V6.25H12.5068C12.6318 6.25 12.6318 6.25 12.6318 6.25L12.7568 6.625C12.7568 6.5 12.7568 6.5 12.7568 6.375C12.7568 6.25 12.7568 6.125 12.8818 6C13.0068 5.875 13.1318 5.625 13.2568 5.5Z" fill="white"/>
<path fill-rule="evenodd" clip-rule="evenodd" d="M13.3818 5.375C13.7568 5.375 14.0068 5.5 14.2568 5.75C14.3818 5.875 14.5068 5.875 14.5068 6C14.5068 6.125 14.7568 6.25 14.7568 6.375H15.6318V6.75C15.5068 6.75 15.0068 6.75 15.0068 6.75V7H15.6318C15.6318 7.125 15.6318 7.25 15.6318 7.375H15.0068V7.875H14.8818C14.8818 8 14.7568 8.125 14.6318 8.25C14.5068 8.375 14.5068 8.375 14.3818 8.5C14.0068 8.625 13.6318 8.75 13.3818 8.75C13.5068 8.875 13.6318 9 13.7568 9.125C13.8818 9.25 13.8818 9.25 14.1318 9.375C14.3818 9.75 14.8818 10 15.3818 10C15.5068 10 15.5068 10 15.6318 10H16.0068C16.5068 10 17.0068 9.875 17.3818 9.5C17.5068 9.375 17.7568 9.25 17.8818 9.125C17.3818 9.125 16.8818 8.875 16.6318 8.625C16.5068 8.5 16.3818 8.375 16.2568 8.125C16.1318 8 16.0068 7.75 16.0068 7.5L15.8818 7.75H15.5068C15.5068 7.625 15.8818 7 15.8818 6.75C15.8818 6.25 16.2568 5.625 16.5068 5.375C16.7568 5.25 17.1318 5 17.7568 5C17.6318 4.875 17.3818 4.625 17.2568 4.5C16.8818 4.25 16.3818 4.125 16.0068 4.125H15.5068C15.0068 4.125 14.6318 4.25 14.1318 4.625C14.0068 4.75 13.8818 4.875 13.6318 5C13.6318 5.125 13.3818 5.25 13.3818 5.375Z" fill="#72AADC"/>
<path fill-rule="evenodd" clip-rule="evenodd" d="M15.7568 6.875L16.0068 6.375H16.2568C16.2568 6.5 16.8818 7.75 16.8818 7.875H16.5068C16.5068 7.75 16.3818 7.625 16.3818 7.625C16.2568 7.625 16.1318 7.625 16.0068 7.625C15.8818 7.625 15.8818 7.625 15.7568 7.75C15.7568 7.875 15.8818 8.25 16.0068 8.375C16.1318 8.625 16.2568 8.75 16.3818 8.875C16.6318 9.125 17.1318 9.375 17.6318 9.375C17.6318 9.375 17.8818 9.125 18.1318 8.75C18.2568 8.5 18.3818 8.25 18.5068 8H18.3818C18.2568 8 18.2568 8 18.2568 8V6.375H18.3818C18.2568 6.125 18.1318 5.875 18.0068 5.625C17.8818 5.5 17.8818 5.375 17.7568 5.25C18.0068 5.125 17.8818 5 17.7568 5C17.1318 5 16.7568 5.375 16.3818 5.625C16.2568 5.75 15.7568 6.375 15.7568 6.875Z" fill="#6A953F"/>
<path fill-rule="evenodd" clip-rule="evenodd" d="M18.6318 6.375H19.3818C19.3818 6.5 19.3818 6.625 19.3818 6.75H18.7568V7H19.3818C19.3818 7.125 19.3818 7.25 19.3818 7.375H18.7568V7.5H19.5068V7.875H18.6318C18.5068 8.125 18.5068 8.375 18.2568 8.625C18.1318 8.875 17.7568 9.125 17.7568 9.25C18.1318 9.25 18.3818 9.25 18.6318 9.125C19.0068 9 19.3818 8.75 19.5068 8.375C19.7568 8 19.8818 7.625 19.8818 7.25V7C19.8818 6.75 19.7568 6.5 19.6318 6.25C19.5068 6 19.3818 5.75 19.1318 5.625C19.0068 5.125 18.5068 5 17.7568 5C17.8818 5 18.0068 5.125 18.0068 5.25C18.1318 5.375 18.1318 5.5 18.2568 5.625C18.3818 5.75 18.5068 6 18.6318 6.375Z" fill="#BFCD31"/>
<path fill-rule="evenodd" clip-rule="evenodd" d="M12.7568 6.875L12.8818 7.25L13.2568 6.375H13.7568V7.875H13.3818V6.875L13.0068 7.875H12.8818C12.8818 8.25 13.1318 8.625 13.3818 8.875C13.7568 8.875 14.0068 8.75 14.2568 8.5C14.3818 8.375 14.5068 8.375 14.5068 8.25C14.5068 8.125 14.7568 8 14.7568 7.875H14.6318V6.375H14.7568C14.7568 6.25 14.6318 6.125 14.5068 6C14.3818 5.875 14.3818 5.875 14.2568 5.75C14.0068 5.625 13.7568 5.5 13.3818 5.375C13.1318 5.625 13.0068 5.75 13.0068 6.125C13.0068 6.25 12.8818 6.375 12.8818 6.5C12.7568 6.625 12.7568 6.75 12.7568 6.875Z" fill="#8F8030"/>
<path fill-rule="evenodd" clip-rule="evenodd" d="M13.3818 8.75C13.2568 8.5 13.0068 8.125 12.8818 7.75H12.7568C12.7568 7.625 12.5068 6.875 12.3818 6.75V7.25C12.3818 7.375 12.3818 7.625 12.3818 7.75H12.0068V6.25H12.3818C12.5068 6.25 12.5068 6.25 12.5068 6.25L12.7568 6.875C12.7568 6.75 12.7568 6.5 12.8818 6.375C12.8818 6.375 12.8818 6.25 13.0068 6.125C13.1318 5.875 13.2568 5.625 13.3818 5.5C12.6318 5.5 12.5068 5.625 12.0068 6C12.0068 6 12.0068 6 11.8818 6.125C11.7568 6.125 11.6318 6.125 11.6318 6.375C11.5068 6.5 11.5068 6.75 11.3818 6.875V7.25C11.3818 7.625 11.5068 7.875 11.7568 8.25C12.0068 8.375 12.2568 8.625 12.5068 8.75C12.7568 8.75 13.0068 8.75 13.3818 8.75Z" fill="#F2AF1C"/>
<path fill-rule="evenodd" clip-rule="evenodd" d="M12.7568 6.875L12.5068 6.375H12.0068V7.875H12.3818V6.875C12.3818 7 12.6318 7.75 12.7568 7.875H12.8818H13.0068L13.3818 6.875V7.875H13.7568V6.375H13.2568L12.8818 7.25L12.7568 6.875Z" fill="white"/>
<path fill-rule="evenodd" clip-rule="evenodd" d="M17.0068 7.875H17.3818V7.25H17.5068L17.7568 7.875H18.1318C18.1318 7.75 17.8818 7.375 17.7568 7.25C18.1318 7.125 18.1318 6.75 17.8818 6.5C17.6318 6.25 17.2568 6.375 16.8818 6.375L17.0068 7.875Z" fill="white"/>
<path fill-rule="evenodd" clip-rule="evenodd" d="M15.7568 6.875C15.6318 7.125 15.3818 7.75 15.3818 7.875H15.7568L15.8818 7.625C15.8818 7.5 15.8818 7.5 16.1318 7.5C16.2568 7.5 16.3818 7.5 16.5068 7.5C16.6318 7.5 16.6318 7.75 16.6318 7.75H17.0068C17.0068 7.625 16.3818 6.375 16.3818 6.25H16.1318L15.7568 6.875Z" fill="white"/>
<path fill-rule="evenodd" clip-rule="evenodd" d="M18.3818 7.875H19.3818V7.5C19.2568 7.5 18.7568 7.5 18.6318 7.5V7.25C18.7568 7.25 19.1318 7.25 19.2568 7.25V6.875H18.6318C18.6318 6.75 18.6318 6.75 18.6318 6.625C18.7568 6.625 19.1318 6.625 19.2568 6.625V6.375H18.2568V7.875H18.3818Z" fill="white"/>
<path fill-rule="evenodd" clip-rule="evenodd" d="M14.6318 7.875H14.7568V7.375H15.0068C15.1318 7.375 15.2568 7.375 15.3818 7.375V7C15.2568 7 14.8818 7 14.7568 7V6.75C14.8818 6.75 15.2568 6.75 15.3818 6.75V6.375H14.5068H14.3818V7.875H14.6318Z" fill="white"/>
<path fill-rule="evenodd" clip-rule="evenodd" d="M13.8818 7.875H14.2568V6.375H13.8818V7.875Z" fill="white"/>
<path fill-rule="evenodd" clip-rule="evenodd" d="M13.8818 5.37542C14.0068 5.37542 13.8818 5.37542 14.1318 5.25042C14.2568 5.12542 14.3818 5.12542 14.5068 5.00042C15.2568 4.50042 16.2568 4.50042 17.0068 5.00042C17.1318 5.12542 17.1318 5.00042 17.2568 5.00042C17.1318 4.87542 16.7568 4.75042 16.5068 4.62542C15.7568 4.37542 14.8818 4.62542 14.2568 5.12542C14.1318 5.12542 13.8818 5.37542 13.8818 5.37542Z" fill="white"/>
<path fill-rule="evenodd" clip-rule="evenodd" d="M13.8818 8.75002C13.8818 8.87502 14.1318 9.00002 14.1318 9.00002C14.2568 9.12502 14.3818 9.12502 14.5068 9.25002C15.0068 9.62502 15.7568 9.62502 16.3818 9.50002C16.6318 9.37502 17.0068 9.25002 17.1318 9.12502C17.0068 9.12502 17.0068 9.12502 16.7568 9.25002C16.6318 9.25002 16.5068 9.37502 16.3818 9.37502C15.6318 9.62502 14.7568 9.37502 14.2568 8.87502C14.0068 8.75002 14.0068 8.62502 13.8818 8.75002Z" fill="white"/>
<path fill-rule="evenodd" clip-rule="evenodd" d="M14.2568 8.5C14.3818 8.75 14.8818 9 15.2568 9.125C15.6318 9.25 16.0068 9.125 16.3818 9C16.3818 9 16.3818 9 16.5068 9H16.6318C16.5068 8.875 16.3818 9 16.0068 9.125C15.7568 9.125 15.5068 9.125 15.3818 9.125C15.1318 9.125 15.0068 9 14.8818 8.875C14.6318 8.625 14.3818 8.5 14.2568 8.5Z" fill="white"/>
<path fill-rule="evenodd" clip-rule="evenodd" d="M14.2568 5.75C14.3818 5.75 14.3818 5.75 14.5068 5.625C14.6318 5.625 14.6318 5.5 14.7568 5.5C15.2568 5.25 15.7568 5.125 16.3818 5.375C16.5068 5.375 16.5068 5.5 16.6318 5.375C16.6318 5.375 16.6318 5.375 16.5068 5.25C16.3818 5.125 16.2568 5.125 16.0068 5.125C15.7568 5.125 15.5068 5.125 15.2568 5.125C15.0068 5.25 14.5068 5.5 14.2568 5.75Z" fill="white"/>
<path fill-rule="evenodd" clip-rule="evenodd" d="M14.6318 8.125L14.7568 8.25C14.8818 8.375 15.1318 8.5 15.2568 8.5C15.5068 8.625 16.0068 8.625 16.1318 8.5C16.1318 8.5 16.1318 8.5 16.0068 8.5C15.7568 8.5 15.5068 8.5 15.2568 8.5C15.0068 8.375 14.8818 8.25 14.6318 8.125Z" fill="white"/>
<path fill-rule="evenodd" clip-rule="evenodd" d="M14.6318 6.00008C14.8818 5.87508 15.0068 5.75008 15.3818 5.62508C16.0068 5.50008 16.1318 5.75008 16.2568 5.62508C16.1318 5.50008 15.3818 5.50008 15.0068 5.75008C14.7568 5.87508 14.7568 6.00008 14.6318 6.00008Z" fill="white"/>
<path fill-rule="evenodd" clip-rule="evenodd" d="M18.3818 7.875C18.5068 7.875 18.5068 7.875 18.6318 7.875H19.5068V7.5H18.7568V7.25H19.3818C19.3818 7.125 19.3818 7 19.3818 6.875H18.7568V6.625H19.3818C19.3818 6.5 19.3818 6.375 19.3818 6.25H18.6318H18.5068C18.3818 6.25 18.5068 6.25 18.5068 6.25H19.5068V6.5C19.3818 6.5 19.0068 6.5 18.8818 6.5C18.8818 6.625 18.8818 6.625 18.8818 6.75H19.5068V7C19.3818 7 19.0068 7 18.8818 7V7.25C19.0068 7.25 19.3818 7.25 19.6318 7.25V7.5L18.3818 7.875Z" fill="#E2E88A"/>
<path fill-rule="evenodd" clip-rule="evenodd" d="M17.3818 6.875C17.5068 6.875 17.7568 6.875 17.7568 6.75C17.7568 6.625 17.5068 6.625 17.3818 6.625V6.875Z" fill="#6A953F"/>
<path fill-rule="evenodd" clip-rule="evenodd" d="M12.3818 6.875V7.875H12.0068V6.375H12.5068C12.5068 6.375 12.5068 6.375 12.3818 6.375H12.0068V7.875H12.3818C12.3818 7.75 12.3818 7.5 12.3818 7.375V6.875Z" fill="#FBE1A3"/>
<path fill-rule="evenodd" clip-rule="evenodd" d="M16.0068 7.25H16.3818L16.1318 6.875L16.0068 7.25Z" fill="#6A953F"/>
<path fill-rule="evenodd" clip-rule="evenodd" d="M14.8818 7.25H15.5068C15.5068 7.125 15.5068 7 15.5068 6.875H14.8818V6.625C15.0068 6.625 15.5068 6.625 15.5068 6.625C15.3818 6.625 15.0068 6.625 14.8818 6.625V6.875C15.0068 6.875 15.3818 6.875 15.5068 6.875V7.25C15.3818 7.25 15.2568 7.25 15.1318 7.25H14.8818Z" fill="#B9D4EE"/>
<rect x="0.5" y="0.5" width="21" height="13" rx="1.5" stroke="#00ABFF"/>
</svg>
