<svg width="22" height="22" viewBox="0 0 22 22" fill="none" xmlns="http://www.w3.org/2000/svg">
<path d="M11.0325 0C17.0825 0 22.0002 4.98235 22.0002 11.0324C21.9678 17.0824 17.0178 22 10.9678 22C4.91781 21.9676 -0.0321952 17.0176 0.000157696 10.9676C0.0325106 4.91765 4.98251 0 11.0325 0ZM11.0649 0.647059C5.33839 0.614706 0.679569 5.24118 0.647216 10.9676C0.614864 16.5971 5.20898 21.2882 10.8384 21.3529C16.5649 21.4176 21.2884 16.8235 21.3531 11.0971C21.3855 5.37059 16.7913 0.679412 11.0649 0.647059Z" fill="#8C8C8C"/>
<path d="M7.73084 13.8911C8.64592 12.9761 9.561 12.061 10.5447 11.0773C9.51525 9.9563 8.62305 8.97259 7.73084 7.98888C7.82235 7.89737 7.93674 7.78299 8.02824 7.69148C8.94332 8.60656 9.83553 9.49876 10.9336 10.5969C12.0088 9.52164 12.9468 8.58368 13.8848 7.64573C13.9991 7.76011 14.1135 7.8745 14.205 7.96601C13.3128 8.85821 12.3977 9.77329 11.3225 10.8485C12.4206 11.9466 13.3586 12.8846 14.2965 13.8225C14.1822 13.9369 14.0449 14.0742 13.9305 14.1885C13.0154 13.2735 12.0775 12.3355 11.0251 11.2832C9.90416 12.4041 8.98908 13.3192 8.05112 14.2572C7.98249 14.1428 7.86811 14.0284 7.73084 13.8911Z" fill="#8C8C8C"/>
</svg>
