<svg width="22" height="22" viewBox="0 0 22 22" fill="none" xmlns="http://www.w3.org/2000/svg">
<g clip-path="url(#clip0_2188_3476)">
<path fill-rule="evenodd" clip-rule="evenodd" d="M10.9819 2C13.5171 2 15.7264 2.97787 17.3924 4.60765C19.0221 6.20121 20 8.4829 20 10.9457C20 13.4447 19.0221 15.6539 17.3924 17.3199C15.7264 18.9497 13.5171 19.9276 10.9819 19.9276C8.51911 19.9276 6.27364 18.9497 4.68008 17.3199C3.01408 15.6901 2 13.4809 2 10.9819C2 8.51912 3.01408 6.23743 4.64386 4.64386C6.23742 2.97787 8.51911 2 10.9819 2Z" fill="#444444"/>
<path fill-rule="evenodd" clip-rule="evenodd" d="M16.8494 5.11512C15.3645 3.63021 13.3001 2.65234 10.9822 2.65234C8.70055 2.65234 6.59995 3.63021 5.15125 5.11512C3.66634 6.63625 2.68848 8.70063 2.68848 10.9823C2.68848 13.264 3.66634 15.3646 5.15125 16.8495C6.59995 18.3707 8.70055 19.2761 10.9822 19.2761C13.3001 19.2761 15.3645 18.3707 16.8494 16.8495C18.3706 15.3646 19.276 13.3002 19.276 10.9823C19.276 8.70063 18.3706 6.63625 16.8494 5.11512Z" fill="#FEFEFE"/>
<path fill-rule="evenodd" clip-rule="evenodd" d="M9.60547 6.59948C9.60547 6.38217 9.75034 6.2373 9.96764 6.2373C10.1487 6.2373 10.3298 6.38217 10.3298 6.59948V12.1769L15.6175 12.2494C15.7986 12.2494 15.9797 12.358 15.9797 12.5391C15.9797 12.7564 15.7624 12.9013 15.6175 12.9013H9.96764C9.75034 12.9013 9.60547 12.7564 9.60547 12.5391V6.59948Z" fill="#444444"/>
</g>
<defs>
<clipPath id="clip0_2188_3476">
<rect width="18" height="17.9638" fill="white" transform="translate(2 2)"/>
</clipPath>
</defs>
</svg>
