<svg width="14" height="22" viewBox="0 0 14 22" fill="none" xmlns="http://www.w3.org/2000/svg">
<path d="M7.61348 7.61278C7.61348 11.7193 7.61348 15.6338 7.61348 19.5482C7.61348 19.9565 7.63749 20.3407 7.61348 20.749C7.56545 21.4694 7.22924 22.1178 6.48477 21.9497C6.02849 21.8296 5.4041 21.1812 5.35607 20.7249C5.21198 19.212 5.30804 17.6991 5.30804 16.1621C5.30804 15.8019 5.30804 15.4176 5.30804 15.0574C5.18797 15.0334 5.04388 15.0334 4.9238 15.0094C4.87577 15.2735 4.77971 15.5377 4.77971 15.8019C4.7557 17.2908 4.7557 18.7557 4.77971 20.2446C4.77971 21.1092 4.63562 21.9497 3.60298 21.9977C2.49829 22.0458 2.42625 21.1572 2.42625 20.2927C2.42625 16.8585 2.42625 13.4244 2.42625 9.96624C2.42625 9.55799 2.42625 9.12572 2.42625 8.71746C2.30617 8.69345 2.16208 8.69345 2.04201 8.66943C1.99398 8.95761 1.89792 9.26981 1.89792 9.55799C1.8739 11.0469 1.96996 12.5118 1.84989 14.0008C1.82587 14.457 1.27353 14.8653 0.961333 15.2735C0.649138 14.8413 0.0967938 14.409 0.0967938 13.9767C0.000733952 11.9835 -0.071311 9.96624 0.120809 7.99702C0.144824 7.18051 0.697168 6.24392 1.32156 5.71559C2.3542 4.85105 3.0026 5.13923 3.60298 6.33998C3.93919 7.0124 4.29941 7.68482 4.7557 8.59739C5.28403 7.58876 5.66827 6.74824 6.17258 5.97976C6.38871 5.64355 6.845 5.30734 7.20522 5.28332C8.91028 5.21128 10.6394 5.25931 12.3684 5.25931C13.209 5.25931 13.8574 5.5715 13.8334 6.46006C13.8093 7.34861 13.1369 7.61278 12.3204 7.61278C10.7835 7.58876 9.27051 7.61278 7.61348 7.61278Z" fill="#4C5358"/>
<path d="M7.13326 2.40191C7.08523 3.6747 5.95653 4.75537 4.68374 4.70734C3.41094 4.65931 2.35429 3.5066 2.42633 2.2338C2.47436 1.00904 3.57905 -0.0236043 4.80381 0.000410624C6.07661 0.0244256 7.15728 1.15313 7.13326 2.40191Z" fill="#4C5358"/>
</svg>
