<svg width="35" height="35" viewBox="0 0 35 35" fill="none" xmlns="http://www.w3.org/2000/svg">
<g clip-path="url(#clip0_2540_3209)">
<path d="M3.99726 22.3703L11.2747 23.2124L25.1948 23.5966L32.1901 23.663L32.8367 21.7498L32.1901 18.0046L29.3273 16.9482H3.0332L3.99726 22.3703Z" fill="#162026"/>
<path d="M34.7943 19.5265C34.7943 19.5265 34.6708 17.3769 34.0888 16.4092C34.0888 16.4092 33.7361 15.9586 32.678 15.6557C32.678 15.6557 29.6624 14.7841 26.2177 14.4886C26.2177 14.4886 23.9133 12.435 21.4385 10.6104C21.4385 10.6104 19.8866 9.76089 17.8645 9.76089C17.8645 9.76089 5.16711 9.33244 2.66292 10.0194C2.6394 10.0268 2.61589 10.0416 2.59825 10.0711L2.46893 10.2632C2.43366 10.3149 2.44541 10.3888 2.49244 10.4183L2.59237 10.4774C2.63352 10.4996 2.6394 10.5661 2.61001 10.603C2.35136 10.9428 1.36379 12.339 0.922909 14.2079C0.899395 14.2965 0.893517 14.3852 0.893517 14.4812V18.3815C0.893517 18.3815 0.340947 18.4554 0.0940544 18.8765L0 19.9771C0 19.9771 0.0705408 21.3585 0.69953 21.6171C0.69953 21.6171 2.94508 22.2228 3.99731 22.3705C3.99731 22.3705 4.12076 20.4647 4.53225 19.0907C4.53225 19.0907 5.02603 17.4434 7.02469 17.4434C7.02469 17.4434 9.91098 17.4138 10.2813 18.7804C10.2813 18.7804 10.7281 20.2948 10.9103 22.0529L11.2689 23.2127L25.1889 23.5968L25.3183 22.3927C25.3183 22.3927 25.5769 19.172 26.2941 18.4333C26.2941 18.4333 26.8231 17.8571 28.522 17.8571C28.522 17.8571 31.3436 17.7906 31.6905 19.3419C31.6905 19.3419 32.1549 20.9522 32.1901 23.3087H34.2417C34.2417 23.3087 34.4945 23.028 34.5944 22.7473L34.5356 22.4518L34.7296 21.5063H34.8472C34.8472 21.5063 34.9589 21.4398 34.9589 21.2699C34.9589 21.2551 34.9589 21.2477 34.9589 21.2329L34.9941 19.7999C35 19.8146 34.9177 19.63 34.7943 19.5265Z" fill="#EAEAEA"/>
<path d="M34.8529 21.5211C34.8529 21.5211 34.9646 21.4546 34.9646 21.2847C34.9646 21.2699 34.9646 21.2626 34.9646 21.2478L34.9998 19.8147C34.9998 19.8147 34.9175 19.63 34.7941 19.5266C34.7941 19.5266 34.7882 19.3936 34.7647 19.172L31.5845 19.0391C31.6315 19.1351 31.6727 19.2385 31.6962 19.3493C31.6962 19.3493 32.1606 20.9597 32.1958 23.3161H34.2474C34.2474 23.3161 34.5002 23.0354 34.6001 22.7547L34.5413 22.4593L34.7353 21.5137H34.8529V21.5211Z" fill="#1481DA"/>
<path d="M4.53813 19.0907C4.53813 19.0907 4.74387 18.4111 5.41989 17.9235L0.899395 17.7314V18.3815C0.899395 18.3815 0.346826 18.4554 0.0999328 18.8764L0 19.9771C0 19.9771 0.0705408 21.3585 0.69953 21.617C0.69953 21.617 2.94508 22.2228 3.99731 22.3705C3.99731 22.3705 4.12076 20.4646 4.53813 19.0907Z" fill="#1481DA"/>
<path d="M25.3242 22.3929C25.3242 22.3929 25.524 19.9034 26.059 18.8028L9.79932 18.1084C10.0345 18.2857 10.2108 18.4999 10.2872 18.7806C10.2872 18.7806 10.734 20.295 10.9162 22.0531L11.2748 23.2128L25.1948 23.597L25.3242 22.3929Z" fill="#1481DA"/>
<path d="M16.0655 9.35475C11.1982 8.6456 4.72605 9.22178 4.72605 9.22178C4.23814 9.34736 3.97949 9.99742 3.97949 9.99742H5.47848L5.63132 9.62068C5.66072 9.54681 5.7195 9.4951 5.79004 9.48772C7.99444 9.22178 13.4614 9.45078 14.3784 9.4951C14.4607 9.4951 14.5312 9.56159 14.5665 9.65762L14.6547 9.90139H16.6827C16.377 9.45817 16.0655 9.35475 16.0655 9.35475Z" fill="#979EA2"/>
<path opacity="0.2" d="M1.39307 12.7753H24.2189C23.4136 12.1179 22.4436 11.3423 21.4443 10.6036C21.4443 10.6036 19.8924 9.75405 17.8702 9.75405C17.8702 9.75405 5.17288 9.32561 2.66868 10.0126C2.64517 10.02 2.62165 10.0348 2.60402 10.0643L2.46881 10.2638C2.43354 10.3155 2.4453 10.3893 2.49233 10.4189L2.59226 10.478C2.63341 10.5001 2.63929 10.5666 2.6099 10.6036C2.42766 10.8547 1.86334 11.6451 1.39307 12.7753Z" fill="white"/>
<path d="M31.6727 22.4667C31.6727 24.4907 30.3677 26.1307 28.757 26.1307C27.1463 26.1307 25.8413 24.4907 25.8413 22.4667C25.8413 20.4427 27.1463 18.8027 28.757 18.8027C30.3677 18.8027 31.6727 20.4427 31.6727 22.4667Z" fill="black"/>
<path d="M28.757 18.8027C27.1463 18.8027 25.8413 20.4427 25.8413 22.4667C25.8413 24.4907 27.1463 26.1307 28.757 26.1307C30.3677 26.1307 31.6727 24.4907 31.6727 22.4667C31.6727 20.4427 30.3677 18.8027 28.757 18.8027ZM30.6675 24.8675C30.4206 25.1777 30.1325 25.4215 29.8092 25.5988C29.4742 25.7761 29.1215 25.8647 28.757 25.8647C28.3925 25.8647 28.0398 25.7761 27.7048 25.5988C27.3814 25.4289 27.0934 25.1851 26.8465 24.8675C26.5996 24.5572 26.4056 24.1953 26.2646 23.789C26.1235 23.3679 26.0529 22.9247 26.0529 22.4667C26.0529 22.0087 26.1235 21.5655 26.2646 21.1444C26.3998 20.7381 26.5937 20.3762 26.8465 20.0659C27.0934 19.7557 27.3814 19.5119 27.7048 19.3346C28.0398 19.1573 28.3925 19.0687 28.757 19.0687C29.1215 19.0687 29.4742 19.1573 29.8092 19.3346C30.1325 19.5045 30.4206 19.7483 30.6675 20.0659C30.9144 20.3762 31.1084 20.7381 31.2494 21.1444C31.3905 21.5655 31.4611 22.0087 31.4611 22.4667C31.4611 22.9247 31.3905 23.3679 31.2494 23.789C31.1084 24.1953 30.9144 24.5572 30.6675 24.8675Z" fill="black"/>
<path d="M28.7569 19.6084C27.5048 19.6084 26.4819 20.8937 26.4819 22.4672C26.4819 24.0406 27.5048 25.326 28.7569 25.326C30.009 25.326 31.0318 24.0406 31.0318 22.4672C31.0318 20.8937 30.009 19.6084 28.7569 19.6084ZM30.7379 22.4672C30.7379 22.807 30.685 23.132 30.5851 23.4349C30.4851 23.7304 30.344 23.9963 30.1618 24.2253C29.9796 24.4543 29.768 24.6316 29.5328 24.7572C29.2859 24.8901 29.0273 24.9492 28.7628 24.9492C28.4923 24.9492 28.2337 24.8827 27.9927 24.7572C27.7575 24.6316 27.5459 24.4543 27.3637 24.2253C27.1815 23.9963 27.0404 23.7304 26.9404 23.4349C26.8346 23.1246 26.7876 22.7996 26.7876 22.4672C26.7876 22.1274 26.8405 21.8023 26.9404 21.4995C27.0404 21.204 27.1815 20.9381 27.3637 20.7091C27.5459 20.4801 27.7575 20.3028 27.9927 20.1772C28.2396 20.0442 28.4982 19.9851 28.7628 19.9851C29.0332 19.9851 29.2918 20.0516 29.5328 20.1772C29.768 20.3028 29.9796 20.4801 30.1618 20.7091C30.344 20.9381 30.4851 21.204 30.5851 21.4995C30.685 21.8097 30.7379 22.1348 30.7379 22.4672Z" fill="black"/>
<path d="M30.7851 22.4665C30.7851 23.8774 29.874 25.015 28.7512 25.015C27.6284 25.015 26.7232 23.8774 26.729 22.4665C26.729 21.0556 27.6402 19.918 28.763 19.918C29.8799 19.918 30.7851 21.063 30.7851 22.4665Z" fill="#D0D2D3"/>
<path d="M30.5674 22.4666C30.5674 23.7224 29.7503 24.7418 28.751 24.7418C27.7517 24.7418 26.9404 23.7224 26.9463 22.4666C26.9463 21.2108 27.7634 20.1914 28.7627 20.1914C29.7621 20.1914 30.5674 21.2108 30.5674 22.4666Z" fill="black"/>
<path d="M30.5674 22.7108V22.2306H29.9207C29.909 22.1346 29.8855 22.0386 29.862 21.9426L30.4263 21.5363L30.2382 21.1226L29.6738 21.5289C29.6268 21.455 29.568 21.3811 29.5093 21.322L29.8326 20.6203L29.5034 20.3839L29.1801 21.0857C29.1095 21.0487 29.0331 21.0266 28.9508 21.0118V20.1992H28.5687V21.0118C28.4923 21.0266 28.4159 21.0561 28.3395 21.0857L28.0161 20.3839L27.6869 20.6203L28.0103 21.322C27.9515 21.3811 27.8927 21.455 27.8457 21.5289L27.2872 21.1226L27.0991 21.5363L27.6576 21.9426C27.6282 22.0312 27.6105 22.1272 27.5988 22.2306H26.9521V22.7108H27.5988C27.6105 22.8068 27.634 22.9029 27.6576 22.9989L27.0932 23.4052L27.2813 23.8189L27.8457 23.4126C27.8927 23.4864 27.9515 23.5603 28.0103 23.6194L27.6869 24.3212L28.0161 24.5576L28.3395 23.8558C28.41 23.8927 28.4864 23.9149 28.5687 23.9297V24.7422H28.9508V23.9297C29.0272 23.9149 29.1036 23.8853 29.1801 23.8558L29.5034 24.5576L29.8326 24.3212L29.5093 23.6194C29.568 23.5603 29.6268 23.4864 29.6738 23.4126L30.2323 23.8189L30.4204 23.4052L29.862 22.9989C29.8913 22.9103 29.909 22.8142 29.9207 22.7108H30.5674Z" fill="#919396"/>
<path d="M29.3097 22.4668C29.3097 22.851 29.0628 23.1612 28.7572 23.1612C28.4515 23.1612 28.2046 22.851 28.2046 22.4668C28.2046 22.0827 28.4515 21.7725 28.7572 21.7725C29.0628 21.7725 29.3097 22.0827 29.3097 22.4668Z" fill="black"/>
<path d="M28.7572 23.5744C28.2752 23.5744 27.8813 23.0794 27.8813 22.4737C27.8813 21.868 28.2752 21.373 28.7572 21.373C29.2393 21.373 29.6331 21.868 29.6331 22.4737C29.6331 23.0794 29.2393 23.5744 28.7572 23.5744ZM28.7572 21.4839C28.3281 21.4839 27.9754 21.9271 27.9754 22.4663C27.9754 23.0056 28.3281 23.4488 28.7572 23.4488C29.1864 23.4488 29.5391 23.0056 29.5391 22.4663C29.5391 21.9271 29.1864 21.4839 28.7572 21.4839Z" fill="#D0D2D3"/>
<path d="M29.0744 22.4668C29.0744 22.6884 28.9274 22.8731 28.751 22.8731C28.5747 22.8731 28.4277 22.6958 28.4277 22.4668C28.4277 22.2452 28.5747 22.0605 28.751 22.0605C28.9274 22.0605 29.0802 22.2452 29.0744 22.4668Z" fill="#CBCDCE"/>
<path d="M28.7571 21.0186C28.1223 21.0186 27.605 21.6686 27.605 22.4664C27.605 23.2642 28.1223 23.9143 28.7571 23.9143C29.392 23.9143 29.9093 23.2642 29.9093 22.4664C29.9093 21.6686 29.392 21.0186 28.7571 21.0186ZM29.7565 22.4664C29.7565 22.6363 29.733 22.7988 29.6801 22.954C29.6271 23.1017 29.5566 23.242 29.4626 23.3529C29.3685 23.471 29.2627 23.5597 29.1451 23.6262C29.0217 23.6927 28.8924 23.7222 28.7571 23.7222C28.6219 23.7222 28.4926 23.6853 28.3692 23.6262C28.2516 23.5597 28.1399 23.471 28.0517 23.3529C27.9577 23.2347 27.8871 23.1017 27.8342 22.954C27.7813 22.7988 27.7578 22.6363 27.7578 22.4664C27.7578 22.2965 27.7872 22.134 27.8342 21.9789C27.8871 21.8311 27.9577 21.6908 28.0517 21.58C28.1458 21.4618 28.2516 21.3731 28.3692 21.3066C28.4926 21.2402 28.6219 21.2106 28.7571 21.2106C28.8924 21.2106 29.0217 21.2476 29.1451 21.3066C29.2627 21.3731 29.3744 21.4618 29.4626 21.58C29.5566 21.6982 29.6271 21.8311 29.6801 21.9789C29.733 22.134 29.7565 22.2965 29.7565 22.4664Z" fill="#D0D2D3"/>
<path d="M28.7627 20.0068C27.6811 20.0068 26.7993 21.1075 26.7935 22.4741C26.7935 23.8333 27.6693 24.9414 28.751 24.9414C29.8326 24.9414 30.7143 23.8407 30.7202 22.4741C30.7202 21.1075 29.8443 20.0068 28.7627 20.0068ZM28.751 24.705C27.7693 24.705 26.9757 23.7077 26.9757 22.4741C26.9757 21.2405 27.7752 20.2432 28.7568 20.2432C29.7385 20.2432 30.5321 21.2405 30.5321 22.4741C30.5321 23.7003 29.7327 24.705 28.751 24.705Z" fill="#D0D2D3"/>
<path d="M30.5674 22.7108V22.2306H29.9207C29.909 22.1346 29.8855 22.0386 29.862 21.9426L30.4263 21.5363L30.2382 21.1226L29.6738 21.5289C29.6268 21.455 29.568 21.3811 29.5093 21.322L29.8326 20.6203L29.5034 20.3839L29.1801 21.0857C29.1095 21.0487 29.0331 21.0266 28.9508 21.0118V20.1992H28.5687V21.0118C28.4923 21.0266 28.4159 21.0561 28.3395 21.0857L28.0161 20.3839L27.6869 20.6203L28.0103 21.322C27.9515 21.3811 27.8927 21.455 27.8457 21.5289L27.2872 21.1226L27.0991 21.5363L27.6576 21.9426C27.6282 22.0312 27.6105 22.1272 27.5988 22.2306H26.9521V22.7108H27.5988C27.6105 22.8068 27.634 22.9029 27.6576 22.9989L27.0932 23.4052L27.2813 23.8189L27.8457 23.4126C27.8927 23.4864 27.9515 23.5603 28.0103 23.6194L27.6869 24.3212L28.0161 24.5576L28.3395 23.8558C28.41 23.8927 28.4864 23.9149 28.5687 23.9297V24.7422H28.9508V23.9297C29.0272 23.9149 29.1036 23.8853 29.1801 23.8558L29.5034 24.5576L29.8326 24.3212L29.5093 23.6194C29.568 23.5603 29.6268 23.4864 29.6738 23.4126L30.2323 23.8189L30.4204 23.4052L29.862 22.9989C29.8913 22.9103 29.909 22.8142 29.9207 22.7108H30.5674ZM29.8091 23.0949L30.2852 23.4421L30.1911 23.649L29.715 23.3018L29.6445 23.2501L29.5916 23.3313C29.5445 23.3978 29.4916 23.4643 29.4387 23.5234L29.3741 23.5899L29.4152 23.6785L29.6915 24.2769L29.5269 24.395L29.2506 23.7967L29.2095 23.7081L29.133 23.745C29.0684 23.7745 28.9978 23.8041 28.9273 23.8115L28.845 23.8262V23.9297V24.624H28.6569V23.9297V23.8262L28.5746 23.8115C28.504 23.7967 28.4335 23.7745 28.3688 23.745L28.2924 23.7081L28.2513 23.7967L27.975 24.395L27.8104 24.2769L28.0867 23.6785L28.1278 23.5899L28.0632 23.5234C28.0103 23.4643 27.9574 23.4052 27.9103 23.3313L27.8574 23.2501L27.7869 23.3018L27.3049 23.649L27.2108 23.4421L27.6928 23.0949L27.7634 23.0432L27.734 22.9472C27.7105 22.8659 27.6928 22.7773 27.6811 22.6886L27.6693 22.5852H27.587H27.0403V22.3488H27.5929H27.6752L27.6869 22.2454C27.6987 22.1568 27.7163 22.0681 27.7457 21.9869L27.7751 21.8908L27.7046 21.8391L27.2284 21.4919L27.3225 21.2851L27.7986 21.6323L27.8692 21.684L27.9221 21.6028C27.9691 21.5363 28.022 21.4698 28.0749 21.4107L28.1396 21.3442L28.0984 21.2556L27.8222 20.6572L27.9867 20.539L28.263 21.1374L28.3042 21.226L28.3806 21.1891C28.4453 21.1595 28.5158 21.13 28.5863 21.1226L28.6686 21.1078V21.0044V20.31H28.8568V21.0044V21.1078L28.939 21.1226C29.0096 21.1374 29.0801 21.1595 29.1448 21.1891L29.2212 21.226L29.2624 21.1374L29.5386 20.539L29.7032 20.6572L29.427 21.2556L29.3858 21.3442L29.4505 21.4107C29.5034 21.4698 29.5563 21.5289 29.6033 21.6028L29.6562 21.684L29.7268 21.6323L30.2088 21.2851L30.3028 21.4919L29.8208 21.8391L29.7503 21.8908L29.7797 21.9869C29.8032 22.0681 29.8208 22.1568 29.8326 22.2454L29.8443 22.3488H29.9266H30.4792V22.5852H29.9266H29.8443L29.8326 22.6886C29.8208 22.7773 29.8032 22.8659 29.7738 22.9472L29.7444 23.0432L29.8091 23.0949Z" fill="#D0D2D3"/>
<path d="M10.3988 22.4667C10.3988 24.4907 9.09375 26.1307 7.48307 26.1307C5.87239 26.1307 4.56738 24.4907 4.56738 22.4667C4.56738 20.4427 5.87239 18.8027 7.48307 18.8027C9.09375 18.8027 10.3988 20.4427 10.3988 22.4667Z" fill="black"/>
<path d="M7.48307 18.8027C5.87239 18.8027 4.56738 20.4427 4.56738 22.4667C4.56738 24.4907 5.87239 26.1307 7.48307 26.1307C9.09375 26.1307 10.3988 24.4907 10.3988 22.4667C10.3988 20.4427 9.09375 18.8027 7.48307 18.8027ZM9.39355 24.8675C9.14666 25.1777 8.85862 25.4215 8.5353 25.5988C8.20023 25.7761 7.84753 25.8647 7.48307 25.8647C7.11861 25.8647 6.76591 25.7761 6.43084 25.5988C6.10752 25.4289 5.81948 25.1851 5.57259 24.8675C5.3257 24.5572 5.13171 24.1953 4.99063 23.789C4.84955 23.3679 4.77901 22.9247 4.77901 22.4667C4.77901 22.0087 4.84955 21.5655 4.99063 21.1444C5.12583 20.7381 5.31982 20.3762 5.57259 20.0659C5.81948 19.7557 6.10752 19.5119 6.43084 19.3346C6.76591 19.1573 7.11861 19.0687 7.48307 19.0687C7.84753 19.0687 8.20023 19.1573 8.5353 19.3346C8.85862 19.5045 9.14666 19.7483 9.39355 20.0659C9.64044 20.3762 9.83443 20.7381 9.97551 21.1444C10.1166 21.5655 10.1871 22.0087 10.1871 22.4667C10.1871 22.9247 10.1166 23.3679 9.97551 23.789C9.83443 24.1953 9.64044 24.5572 9.39355 24.8675Z" fill="black"/>
<path d="M7.48295 19.6084C6.23085 19.6084 5.20801 20.8937 5.20801 22.4672C5.20801 24.0406 6.23085 25.326 7.48295 25.326C8.73505 25.326 9.75789 24.0406 9.75789 22.4672C9.75789 20.8937 8.73505 19.6084 7.48295 19.6084ZM9.46397 22.4672C9.46397 22.807 9.41106 23.132 9.31113 23.4349C9.2112 23.7304 9.07012 23.9963 8.88789 24.2253C8.70566 24.4543 8.49403 24.6316 8.2589 24.7572C8.01201 24.8901 7.75336 24.9492 7.48883 24.9492C7.21842 24.9492 6.95977 24.8827 6.71876 24.7572C6.48362 24.6316 6.272 24.4543 6.08977 24.2253C5.90754 23.9963 5.76646 23.7304 5.66652 23.4349C5.56071 23.1246 5.51368 22.7996 5.51368 22.4672C5.51368 22.1274 5.56659 21.8023 5.66652 21.4995C5.76646 21.204 5.90754 20.9381 6.08977 20.7091C6.272 20.4801 6.48362 20.3028 6.71876 20.1772C6.96565 20.0442 7.2243 19.9851 7.48883 19.9851C7.75923 19.9851 8.01788 20.0516 8.2589 20.1772C8.49403 20.3028 8.70566 20.4801 8.88789 20.7091C9.07012 20.9381 9.2112 21.204 9.31113 21.4995C9.41106 21.8097 9.46397 22.1348 9.46397 22.4672Z" fill="black"/>
<path d="M9.5112 22.4665C9.5112 23.8774 8.60005 25.015 7.47728 25.015C6.3545 25.015 5.44923 23.8774 5.45511 22.4665C5.45511 21.0556 6.36626 19.918 7.48903 19.918C8.60593 19.918 9.5112 21.063 9.5112 22.4665Z" fill="#D0D2D3"/>
<path d="M9.29349 22.4666C9.29349 23.7224 8.47639 24.7418 7.47706 24.7418C6.47774 24.7418 5.66652 23.7224 5.6724 22.4666C5.6724 21.2108 6.48949 20.1914 7.48882 20.1914C8.48815 20.1914 9.29349 21.2108 9.29349 22.4666Z" fill="black"/>
<path d="M9.29344 22.7108V22.2306H8.64682C8.63506 22.1346 8.61155 22.0386 8.58803 21.9426L9.15236 21.5363L8.96425 21.1226L8.39992 21.5289C8.35289 21.455 8.29411 21.3811 8.23533 21.322L8.55864 20.6203L8.22945 20.3839L7.90614 21.0857C7.8356 21.0487 7.75918 21.0266 7.67688 21.0118V20.1992H7.29478V21.0118C7.21836 21.0266 7.14194 21.0561 7.06553 21.0857L6.74221 20.3839L6.41302 20.6203L6.73633 21.322C6.67755 21.3811 6.61877 21.455 6.57174 21.5289L6.01329 21.1226L5.82518 21.5363L6.38363 21.9426C6.35424 22.0312 6.3366 22.1272 6.32485 22.2306H5.67822V22.7108H6.32485C6.3366 22.8068 6.36012 22.9029 6.38363 22.9989L5.8193 23.4052L6.00741 23.8189L6.57174 23.4126C6.61877 23.4864 6.67755 23.5603 6.73633 23.6194L6.41302 24.3212L6.74221 24.5576L7.06553 23.8558C7.13607 23.8927 7.21249 23.9149 7.29478 23.9297V24.7422H7.67688V23.9297C7.7533 23.9149 7.82972 23.8853 7.90614 23.8558L8.22945 24.5576L8.55864 24.3212L8.23533 23.6194C8.29411 23.5603 8.35289 23.4864 8.39992 23.4126L8.95837 23.8189L9.14648 23.4052L8.58803 22.9989C8.61742 22.9103 8.63506 22.8142 8.64682 22.7108H9.29344Z" fill="#919396"/>
<path d="M8.0358 22.4668C8.0358 22.851 7.78891 23.1612 7.48323 23.1612C7.17756 23.1612 6.93066 22.851 6.93066 22.4668C6.93066 22.0827 7.17756 21.7725 7.48323 21.7725C7.78891 21.7725 8.0358 22.0827 8.0358 22.4668Z" fill="black"/>
<path d="M7.4833 23.5744C7.00127 23.5744 6.60742 23.0794 6.60742 22.4737C6.60742 21.868 7.00127 21.373 7.4833 21.373C7.96533 21.373 8.35918 21.868 8.35918 22.4737C8.35918 23.0794 7.96533 23.5744 7.4833 23.5744ZM7.4833 21.4839C7.0483 21.4839 6.70148 21.9271 6.70148 22.4663C6.70148 23.0056 7.05418 23.4488 7.4833 23.4488C7.91243 23.4488 8.26513 23.0056 8.26513 22.4663C8.26513 21.9271 7.91243 21.4839 7.4833 21.4839Z" fill="#D0D2D3"/>
<path d="M7.80043 22.4668C7.80043 22.6884 7.65347 22.8731 7.47712 22.8731C7.30077 22.8731 7.15381 22.6958 7.15381 22.4668C7.15381 22.2452 7.30077 22.0605 7.47712 22.0605C7.65347 22.0605 7.80631 22.2452 7.80043 22.4668Z" fill="#CBCDCE"/>
<path d="M7.48322 21.0186C6.84835 21.0186 6.33105 21.6686 6.33105 22.4664C6.33105 23.2642 6.84835 23.9143 7.48322 23.9143C8.11809 23.9143 8.63539 23.2642 8.63539 22.4664C8.63539 21.6686 8.11809 21.0186 7.48322 21.0186ZM8.48255 22.4664C8.48255 22.6363 8.45904 22.7988 8.40613 22.954C8.35322 23.1017 8.28268 23.242 8.18863 23.3529C8.09458 23.471 7.98876 23.5597 7.8712 23.6262C7.74775 23.6927 7.61842 23.7222 7.48322 23.7222C7.34802 23.7222 7.21869 23.6853 7.09525 23.6262C6.97768 23.5597 6.86599 23.471 6.77781 23.3529C6.68376 23.2347 6.61322 23.1017 6.56031 22.954C6.50741 22.7988 6.48389 22.6363 6.48389 22.4664C6.48389 22.2965 6.51329 22.134 6.56031 21.9789C6.61322 21.8311 6.68376 21.6908 6.77781 21.58C6.87187 21.4618 6.97768 21.3731 7.09525 21.3066C7.21869 21.2402 7.34802 21.2106 7.48322 21.2106C7.61842 21.2106 7.74775 21.2476 7.8712 21.3066C7.98876 21.3731 8.10045 21.4618 8.18863 21.58C8.28268 21.6982 8.35322 21.8311 8.40613 21.9789C8.45904 22.134 8.48255 22.2965 8.48255 22.4664Z" fill="#D0D2D3"/>
<path d="M7.4888 20.0068C6.40717 20.0068 5.52541 21.1075 5.51953 22.4741C5.51953 23.8333 6.39541 24.9414 7.47704 24.9414C8.55866 24.9414 9.44042 23.8407 9.4463 22.4741C9.4463 21.1075 8.57042 20.0068 7.4888 20.0068ZM7.47704 24.705C6.49535 24.705 5.70176 23.7077 5.70176 22.4741C5.70176 21.2405 6.50122 20.2432 7.48292 20.2432C8.46461 20.2432 9.25819 21.2405 9.25819 22.4741C9.25819 23.7003 8.45873 24.705 7.47704 24.705Z" fill="#D0D2D3"/>
<path d="M9.29344 22.7108V22.2306H8.64682C8.63506 22.1346 8.61155 22.0386 8.58803 21.9426L9.15236 21.5363L8.96425 21.1226L8.39992 21.5289C8.35289 21.455 8.29411 21.3811 8.23533 21.322L8.55864 20.6203L8.22945 20.3839L7.90614 21.0857C7.8356 21.0487 7.75918 21.0266 7.67688 21.0118V20.1992H7.29478V21.0118C7.21836 21.0266 7.14194 21.0561 7.06553 21.0857L6.74221 20.3839L6.41302 20.6203L6.73633 21.322C6.67755 21.3811 6.61877 21.455 6.57174 21.5289L6.01329 21.1226L5.82518 21.5363L6.38363 21.9426C6.35424 22.0312 6.3366 22.1272 6.32485 22.2306H5.67822V22.7108H6.32485C6.3366 22.8068 6.36012 22.9029 6.38363 22.9989L5.8193 23.4052L6.00741 23.8189L6.57174 23.4126C6.61877 23.4864 6.67755 23.5603 6.73633 23.6194L6.41302 24.3212L6.74221 24.5576L7.06553 23.8558C7.13607 23.8927 7.21249 23.9149 7.29478 23.9297V24.7422H7.67688V23.9297C7.7533 23.9149 7.82972 23.8853 7.90614 23.8558L8.22945 24.5576L8.55864 24.3212L8.23533 23.6194C8.29411 23.5603 8.35289 23.4864 8.39992 23.4126L8.95837 23.8189L9.14648 23.4052L8.58803 22.9989C8.61742 22.9103 8.63506 22.8142 8.64682 22.7108H9.29344ZM8.53513 23.0949L9.01128 23.4421L8.91722 23.649L8.44107 23.3018L8.37053 23.2501L8.31762 23.3313C8.2706 23.3978 8.21769 23.4643 8.16479 23.5234L8.10012 23.5899L8.14127 23.6785L8.41756 24.2769L8.25296 24.395L7.97668 23.7967L7.93553 23.7081L7.85911 23.745C7.79445 23.7745 7.72391 23.8041 7.65337 23.8115L7.57107 23.8262V23.9297V24.624H7.38296V23.9297V23.8262L7.30066 23.8115C7.23012 23.7967 7.15958 23.7745 7.09492 23.745L7.0185 23.7081L6.97735 23.7967L6.70106 24.395L6.53647 24.2769L6.81275 23.6785L6.8539 23.5899L6.78924 23.5234C6.73633 23.4643 6.68343 23.4052 6.6364 23.3313L6.5835 23.2501L6.51296 23.3018L6.03093 23.649L5.93687 23.4421L6.4189 23.0949L6.48944 23.0432L6.46005 22.9472C6.43654 22.8659 6.4189 22.7773 6.40714 22.6886L6.39539 22.5852H6.31309H5.76052V22.3488H6.31309H6.39539L6.40714 22.2454C6.4189 22.1568 6.43654 22.0681 6.46593 21.9869L6.49532 21.8908L6.42478 21.8391L5.94863 21.4919L6.04268 21.2851L6.51883 21.6323L6.58937 21.684L6.64228 21.6028C6.68931 21.5363 6.74221 21.4698 6.79512 21.4107L6.85978 21.3442L6.81863 21.2629L6.54235 20.6646L6.70694 20.5464L6.98323 21.1448L7.02438 21.2334L7.1008 21.1965C7.16546 21.1669 7.236 21.1374 7.30654 21.13L7.38884 21.1152V21.0118V20.3174H7.57695V21.0118V21.1152L7.65924 21.13C7.72978 21.1448 7.80033 21.1669 7.86499 21.1965L7.94141 21.2334L7.98256 21.1448L8.25884 20.5464L8.42344 20.6646L8.14715 21.2629L8.106 21.3516L8.17066 21.4181C8.22357 21.4772 8.27648 21.5363 8.3235 21.6101L8.37641 21.6914L8.44695 21.6397L8.92898 21.2925L9.02303 21.4993L8.541 21.8465L8.47046 21.8982L8.49986 21.9943C8.52337 22.0755 8.541 22.1642 8.55276 22.2528L8.56452 22.3562H8.64682H9.19938V22.5926H8.64094H8.55864L8.54688 22.696C8.53513 22.7847 8.51749 22.8733 8.4881 22.9546L8.45871 23.0506L8.53513 23.0949Z" fill="#D0D2D3"/>
<path d="M1.93994 14.3931C1.93994 14.3931 2.83346 11.4678 3.71522 10.3376C3.71522 10.3376 8.19456 10.212 9.49369 10.1973C9.49369 10.1973 9.85227 10.3081 9.61126 10.8104L8.11226 13.9351C8.11226 13.9351 7.87125 14.3931 7.45976 14.3931C7.05415 14.3931 1.93994 14.3931 1.93994 14.3931Z" fill="black"/>
<path d="M10.2576 13.1299C10.3106 12.9009 10.387 12.6793 10.4575 12.4651C10.6162 11.9554 10.7926 11.4457 11.0042 10.9655C11.0395 10.8916 11.0689 10.8178 11.11 10.7439C11.1277 10.707 11.2041 10.6036 11.2041 10.5666C11.2041 10.5666 11.3569 10.1973 11.7449 10.1973C11.7449 10.1973 16.9825 10.2711 19.4985 10.6479C19.4985 10.6479 20.6624 10.8916 21.3855 11.6673L23.537 13.8982C23.537 13.8982 24.213 15.1022 23.1137 15.3165C22.0145 15.5381 11.2158 14.8142 11.2158 14.8142C11.2158 14.8142 10.8925 14.7698 10.6868 14.4891C10.5516 14.3044 10.3458 14.0976 10.2576 13.876C10.24 13.8317 10.2283 13.78 10.2224 13.7283C10.193 13.5214 10.2106 13.322 10.2576 13.1299Z" fill="black"/>
<path d="M21.4622 10.6182L21.2741 10.6994C21.2212 10.7216 21.2094 10.8176 21.2623 10.8545C21.7443 11.2313 23.5549 12.6865 25.3419 14.4299C25.4125 14.4964 25.5006 14.5333 25.5888 14.5259L26.2354 14.4816C26.2237 14.4816 23.9311 12.4354 21.4622 10.6182Z" fill="#312935"/>
<path opacity="0.4" d="M24.6244 14.6584L24.5656 14.4147C24.5069 14.1857 24.3952 13.9862 24.2423 13.8385L21.3384 11.0831C21.3384 11.0831 20.439 10.2927 18.7637 10.0859L10.8455 9.86426C10.8455 9.86426 9.65802 12.4202 9.32883 14.6289C9.32883 14.6289 9.17599 16.4092 9.11133 17.7536C9.6639 17.9457 10.1459 18.2633 10.287 18.773C10.287 18.773 10.7338 20.2873 10.916 22.0455L11.1276 22.7324H24.3129L24.6244 21.3585C24.6244 21.3732 25.2769 17.6871 24.6244 14.6584ZM24.5598 21.3511L24.2658 22.6586H11.1746L10.9807 22.0307C10.7984 20.3021 10.3634 18.7952 10.3517 18.7508C10.2282 18.2928 9.83437 17.9457 9.18187 17.7019C9.24653 16.4092 9.38761 14.7323 9.39937 14.651C9.69917 12.6344 10.7338 10.2927 10.8866 9.9529L18.7637 10.1671C20.3743 10.3666 21.2737 11.1201 21.3031 11.1496L24.2188 13.9123C24.354 14.0379 24.454 14.2152 24.501 14.4147L24.5656 14.6806C24.9007 16.2319 24.8831 17.9604 24.8067 19.1424C24.7244 20.3908 24.5656 21.2994 24.5598 21.3511Z" fill="#FCFCFC"/>
<path d="M25.4536 15.6711C25.4536 15.6711 25.4007 16.2694 25.53 16.4689L26.9585 16.4763C26.9585 16.4763 27.3112 16.203 27.3347 15.8336C27.3347 15.8336 27.317 15.7006 27.1348 15.7006L25.6064 15.5898C25.6064 15.5898 25.4595 15.612 25.4536 15.6711Z" fill="#1F1916"/>
<path d="M1.94007 14.3926H0.893713C0.893713 14.3926 0.670334 16.3132 0.893713 18.3816H1.8225C1.82838 18.3816 1.78723 15.279 1.94007 14.3926Z" fill="#FF0000"/>
<path opacity="0.2" d="M31.9137 20.347H34.9881L34.9998 19.8151C34.9998 19.8151 34.9175 19.6305 34.7941 19.527C34.7941 19.527 34.7941 19.5197 34.7941 19.5049H31.7373C31.7785 19.6674 31.8431 19.9555 31.9137 20.347Z" fill="white"/>
<path d="M33.8478 21.5215C33.8008 21.5215 33.7537 21.5658 33.7479 21.6249L33.6714 22.1346C33.6597 22.2085 33.7008 22.2823 33.7596 22.2971L34.5356 22.467L34.7296 21.5215H33.8478Z" fill="#949494"/>
<path d="M34.7942 19.5047C34.7824 19.2904 34.6531 17.5619 34.1887 16.5942C34.0535 16.5572 33.8419 16.5277 33.7537 16.5055C33.6714 16.4907 33.6009 16.5794 33.6126 16.6828C33.8595 18.3597 33.8419 19.5047 33.8419 19.5047H34.7942Z" fill="#FFF200"/>
<path d="M34.271 19.5047C34.2181 18.2858 33.8771 16.8675 33.7889 16.5129C33.7772 16.5129 33.7654 16.5055 33.7596 16.5055C33.6773 16.4907 33.6067 16.5794 33.6185 16.6828C33.8654 18.3597 33.8477 19.5047 33.8477 19.5047H34.271Z" fill="#FFFAA5"/>
<path opacity="0.5" d="M34.7235 19.4228H34.5413H33.9064C33.9064 19.1273 33.8829 18.0783 33.6772 16.6674C33.6713 16.6378 33.683 16.6157 33.6889 16.6083C33.7007 16.5935 33.7124 16.5861 33.7301 16.5861C33.7359 16.5861 33.736 16.5861 33.7418 16.5861C33.8476 16.6083 34.0416 16.6378 34.1474 16.6674L34.2297 16.6896C34.218 16.66 34.2003 16.6231 34.1886 16.5935C34.0534 16.5566 33.8418 16.527 33.7536 16.5049C33.7477 16.5049 33.7418 16.5049 33.736 16.5049C33.6595 16.5049 33.6007 16.5935 33.6184 16.6822C33.8653 18.359 33.8476 19.504 33.8476 19.504H34.7999C34.7999 19.4892 34.7941 19.4597 34.7941 19.4228H34.7235Z" fill="#FFF200"/>
<path d="M34.2827 23.5079L34.2474 23.3232H32.1958L32.1899 23.663H34.1827C34.2474 23.663 34.2944 23.5892 34.2827 23.5079Z" fill="#404041"/>
<path opacity="0.4" d="M1.93995 14.3926H1.63427H0.893593L0.881836 14.5255C0.881836 14.5255 1.22278 14.5255 1.40501 14.5255C1.58724 14.5255 1.58137 14.8949 1.58137 14.8949C1.49319 16.1064 1.52258 18.3816 1.52258 18.3816H1.82826C1.82826 18.3816 1.78711 15.279 1.93995 14.3926Z" fill="#909596"/>
<path opacity="0.3" d="M4.20886 20.5832L0.0234375 20.2139C0.0763431 20.6202 0.23506 21.4253 0.699454 21.6174C0.699454 21.6174 2.945 22.2231 3.99724 22.3709C3.99724 22.3709 4.05014 21.5435 4.20886 20.5832Z" fill="#909596"/>
<path opacity="0.2" d="M32.1724 19.5045H32.3488C32.3194 19.2312 32.2665 18.8988 32.1783 18.5442C31.8785 17.3549 30.7381 16.7566 29.8152 16.4906C28.8394 16.2025 27.7695 16.2395 26.829 16.6827C25.6415 17.2367 24.9538 18.7437 24.9949 20.258C25.0537 19.8739 25.1713 19.5341 25.2771 19.1574C25.3829 18.7954 25.5416 18.5073 25.7591 18.2266C26.1294 17.7464 26.6467 17.4583 27.164 17.318C27.7519 17.1629 28.3574 17.1038 28.957 17.1555C29.7976 17.222 30.7205 17.4879 31.4082 18.1084C31.7198 18.3891 31.9726 18.7585 32.0901 19.2017L32.1724 19.5045Z" fill="white"/>
<g opacity="0.4">
<path d="M9.49369 10.1973C8.18868 10.2194 3.71522 10.3376 3.71522 10.3376C2.83346 11.4678 1.93994 14.3931 1.93994 14.3931C1.93994 14.3931 7.05415 14.3931 7.46564 14.3931C7.87713 14.3931 8.11814 13.9351 8.11814 13.9351L9.61713 10.8104C9.85227 10.3081 9.49369 10.1973 9.49369 10.1973ZM9.51132 10.7365L8.01233 13.8538C7.99469 13.8834 7.78895 14.2454 7.45976 14.2454H2.11042C2.32792 13.5805 3.05096 11.4383 3.76225 10.4927C4.25015 10.478 8.23571 10.3746 9.47605 10.3524C9.49956 10.3598 9.55247 10.3893 9.57011 10.4484C9.58774 10.5075 9.57011 10.6109 9.51132 10.7365Z" fill="#909596"/>
<path d="M23.5313 13.8982L21.3798 11.6673C20.6509 10.899 19.4929 10.6479 19.4929 10.6479C16.9769 10.2711 11.7393 10.1973 11.7393 10.1973C11.3513 10.1973 11.1984 10.5666 11.1984 10.5666C11.1984 10.6036 11.122 10.707 11.1044 10.7439C11.0691 10.8178 11.0338 10.8916 10.9986 10.9655C10.787 11.4457 10.6165 11.9554 10.4519 12.4651C10.3813 12.6793 10.3049 12.9009 10.252 13.1299C10.2109 13.322 10.1874 13.5214 10.2167 13.7209C10.2226 13.7726 10.2344 13.8243 10.252 13.8686C10.3402 14.0902 10.5459 14.2971 10.6811 14.4817C10.8869 14.7698 11.2102 14.8068 11.2102 14.8068C11.2102 14.8068 19.3635 15.3534 22.2204 15.3534C22.6496 15.3534 22.9611 15.3386 23.1081 15.3091C24.2073 15.0949 23.5313 13.8982 23.5313 13.8982ZM23.5901 14.8142C23.5313 14.9988 23.3608 15.117 23.0904 15.1687C22.9611 15.1983 22.6672 15.2057 22.2204 15.2057C19.4223 15.2057 11.4277 14.6738 11.2161 14.659C11.1926 14.6516 10.928 14.6073 10.7634 14.3783C10.7223 14.3192 10.6753 14.2601 10.6224 14.201C10.5165 14.0681 10.4049 13.9351 10.3519 13.8021C10.3402 13.7726 10.3343 13.743 10.3284 13.6913C10.3049 13.5362 10.3167 13.3663 10.3637 13.1668C10.399 13.0043 10.4519 12.8418 10.5048 12.6793C10.5224 12.6276 10.5401 12.5685 10.5577 12.5168C10.7105 12.0366 10.881 11.5195 11.0985 11.032C11.1338 10.9507 11.169 10.8769 11.1984 10.8178C11.2043 10.8104 11.2102 10.7956 11.222 10.7808C11.2631 10.7144 11.2925 10.6626 11.3101 10.6109C11.3395 10.5518 11.4688 10.3376 11.7393 10.3376C11.8274 10.3376 17.0004 10.4115 19.4752 10.7882C19.534 10.803 20.6274 11.0542 21.3034 11.7707L23.4373 13.9868C23.5254 14.1493 23.6842 14.5408 23.5901 14.8142Z" fill="#909596"/>
</g>
<path opacity="0.2" d="M18.0996 16.2471C18.0878 16.5722 17.7998 16.8159 17.4589 16.8012C17.1179 16.779 16.8475 16.5057 16.8593 16.1806C16.871 15.8556 17.1591 15.6118 17.5 15.6266C17.841 15.6414 18.1114 15.9221 18.0996 16.2471Z" fill="#404041"/>
<path d="M18.2997 16.0257L16.642 15.9297C16.5832 15.9297 16.5362 15.9814 16.5303 16.0553L16.5244 16.2252C16.5244 16.299 16.5656 16.3581 16.6243 16.3655L18.2821 16.4616C18.3408 16.4616 18.3879 16.4098 18.3937 16.336L18.3996 16.1661C18.4055 16.0848 18.3585 16.0257 18.2997 16.0257Z" fill="#D0D2D3"/>
<path opacity="0.2" d="M16.5303 16.1582V16.2321C16.5303 16.3059 16.5714 16.365 16.6302 16.3724L18.2879 16.4685C18.3467 16.4685 18.3937 16.4167 18.3996 16.3429V16.269L16.5303 16.1582Z" fill="#404041"/>
<path opacity="0.2" d="M16.9078 15.9457L16.8667 15.9434L16.8513 16.3788L16.8924 16.3811L16.9078 15.9457Z" fill="#404041"/>
<path d="M16.7946 16.1587C16.7946 16.2178 16.7535 16.2621 16.7065 16.2621C16.6594 16.2621 16.6242 16.2104 16.63 16.1513C16.63 16.0922 16.6712 16.0479 16.7182 16.0479C16.7594 16.0552 16.8005 16.1069 16.7946 16.1587Z" fill="#404041"/>
<path opacity="0.2" d="M11.7803 15.8926C11.7685 16.2177 11.4805 16.4614 11.1395 16.4467C10.7986 16.4245 10.5282 16.1512 10.5399 15.8261C10.5517 15.5011 10.8397 15.2573 11.1807 15.2721C11.5216 15.2869 11.792 15.5676 11.7803 15.8926Z" fill="#404041"/>
<path d="M11.9804 15.6712L10.3226 15.5752C10.2639 15.5752 10.2168 15.6269 10.211 15.7008L10.2051 15.8707C10.2051 15.9445 10.2462 16.0036 10.305 16.011L11.9627 16.1071C12.0215 16.1071 12.0685 16.0554 12.0744 15.9815L12.0803 15.8116C12.0862 15.7303 12.0391 15.6712 11.9804 15.6712Z" fill="#D0D2D3"/>
<path opacity="0.2" d="M10.2109 15.8037V15.8776C10.2109 15.9515 10.2521 16.0105 10.3109 16.0179L11.9686 16.114C12.0274 16.114 12.0744 16.0623 12.0803 15.9884V15.9145L10.2109 15.8037Z" fill="#404041"/>
<path opacity="0.2" d="M10.5894 15.5912L10.5483 15.5889L10.5327 16.0243L10.5738 16.0266L10.5894 15.5912Z" fill="#404041"/>
<path d="M10.4756 15.8042C10.4756 15.8633 10.4345 15.9076 10.3875 15.9076C10.3404 15.9076 10.3052 15.8559 10.3052 15.7968C10.3052 15.7377 10.3463 15.6934 10.3934 15.6934C10.4463 15.7007 10.4815 15.7525 10.4756 15.8042Z" fill="#404041"/>
<path opacity="0.2" d="M0.0942383 18.8768C1.81661 18.6256 3.87405 18.6478 4.72642 18.6773C4.77932 18.5887 4.84986 18.4853 4.93216 18.3818H0.893701C0.893701 18.3818 0.341131 18.4557 0.0942383 18.8768Z" fill="white"/>
<path opacity="0.2" d="M10.9634 18.3147C10.6636 17.1254 9.52316 16.5271 8.60025 16.2611C7.62444 15.9731 6.55457 16.01 5.61402 16.4532C4.86747 16.8004 4.32078 17.5243 4.02686 18.3886H4.29138C4.3678 18.2556 4.4501 18.1301 4.54415 18.0045C4.91449 17.5243 5.43179 17.2362 5.94909 17.0959C6.53693 16.9408 7.14241 16.8817 7.742 16.9334C8.58262 16.9998 9.50552 17.2658 10.1933 17.8863C10.5049 18.167 10.7576 18.5363 10.8752 18.9796L11.1632 20.1319C11.1691 20.1246 11.222 19.3489 10.9634 18.3147Z" fill="white"/>
<path opacity="0.3" d="M11.2746 23.2131L25.1947 23.5972L25.2417 23.1614L11.21 23.0137L11.2746 23.2131Z" fill="#909596"/>
<path d="M24.4778 17.7681L16.3715 17.5391C16.3068 17.5391 16.248 17.6055 16.248 17.6868V17.7311C16.248 17.8124 16.301 17.8863 16.3656 17.8863L24.4719 18.1153C24.5366 18.1153 24.5954 18.0488 24.5954 17.9675V17.9232C24.5954 17.8345 24.5425 17.7681 24.4778 17.7681Z" fill="white"/>
<path d="M15.5893 17.5176L11.3451 17.3994C11.2805 17.3994 11.2217 17.4659 11.2217 17.5472V17.5915C11.2217 17.6727 11.2746 17.7466 11.3392 17.7466L15.5835 17.8648C15.6481 17.8648 15.7069 17.7983 15.7069 17.7171V17.6727C15.7128 17.5915 15.6599 17.5176 15.5893 17.5176Z" fill="white"/>
<path d="M22.826 14.3408L22.5791 14.8062L22.6732 15.4267C22.6849 15.5006 22.7319 15.5449 22.7907 15.5449H23.3374C23.3374 15.5449 23.7078 15.1608 23.7136 14.7988C23.7195 14.4516 22.826 14.3408 22.826 14.3408Z" fill="#162026"/>
<path d="M21.9559 14.5698L21.8677 13.4691C21.8677 13.4691 21.8677 13.2918 22.1204 13.2549C22.1204 13.2549 22.6907 13.2623 22.9082 13.5651C22.9082 13.5651 23.2197 14.1044 23.3432 14.7618C23.3432 14.7618 23.2961 15.0499 23.1374 15.0573C23.1374 15.0573 22.5613 15.0869 22.285 14.9613C22.285 14.9687 21.9735 14.7914 21.9559 14.5698Z" fill="#A0A0A0"/>
<path opacity="0.2" d="M22.1203 13.2549C22.0968 13.2549 22.0733 13.2623 22.0557 13.2697C22.2379 13.4913 22.7552 14.1856 22.9551 15.0647C23.0667 15.0647 23.1373 15.0647 23.1373 15.0647C23.296 15.0573 23.343 14.7692 23.343 14.7692C23.2196 14.1118 22.908 13.5725 22.908 13.5725C22.6905 13.2623 22.1203 13.2549 22.1203 13.2549Z" fill="white"/>
<path opacity="0.3" d="M34.1888 16.5939C34.0536 16.5569 33.842 16.5274 33.7538 16.5052C33.7009 16.4905 33.6539 16.5274 33.6304 16.5791C33.8538 16.8524 34.277 17.4508 34.6767 18.4111C34.5827 17.8201 34.4357 17.1036 34.1888 16.5939Z" fill="white"/>
<path opacity="0.2" d="M34.0948 16.4089C34.0948 16.4089 33.7421 15.9583 32.684 15.6554C32.684 15.6554 29.6684 14.7838 26.2236 14.4883C26.2236 14.4883 26.6116 15.1753 27.6462 15.3599C28.5632 15.5225 31.8728 15.8918 34.1477 16.5197C34.1301 16.4754 34.1124 16.4385 34.0948 16.4089Z" fill="white"/>
<path d="M0.834568 17.6431H1.11085C1.20491 17.6431 1.27545 17.5471 1.27545 17.4363V17.2146C1.27545 17.0965 1.19903 17.0078 1.11085 17.0078H0.805176C0.811054 17.2146 0.816933 17.4289 0.834568 17.6431Z" fill="#EBE7C7"/>
<path d="M0.805176 15.7368H1.10497C1.19903 15.7368 1.26957 15.6408 1.26957 15.53V15.3084C1.26957 15.1902 1.19315 15.1016 1.10497 15.1016H0.834568C0.822811 15.2789 0.816933 15.4931 0.805176 15.7368Z" fill="#EBE7C7"/>
<path d="M15.6954 10.3301C15.5543 11.3643 15.425 13.7872 15.3604 15.0725C15.8365 15.1021 16.3303 15.1243 16.8241 15.1538C16.7065 13.3144 16.8829 11.0762 16.9475 10.4039C16.536 10.3744 16.1128 10.3449 15.6954 10.3301Z" fill="#1F1916"/>
<path opacity="0.4" d="M16.348 10.108L16.2892 10.1006C16.2833 10.1671 15.6955 16.8966 16.1305 22.6659L16.1892 22.6585C15.7484 16.8966 16.3421 10.1745 16.348 10.108Z" fill="#909596"/>
</g>
<defs>
<clipPath id="clip0_2540_3209">
<rect width="35" height="17.1379" fill="white" transform="translate(0 9)"/>
</clipPath>
</defs>
</svg>
