<svg width="35" height="35" viewBox="0 0 35 35" fill="none" xmlns="http://www.w3.org/2000/svg">
<path d="M32.2602 24.0559C32.2602 24.0559 30.6275 22.0292 29.0951 22.1432C27.5628 22.2544 25.9666 23.7766 25.9666 23.7766L10.2031 23.6169C10.2031 23.6169 9.00597 21.7641 7.04266 21.6957C5.07935 21.6244 4.03954 23.577 4.03954 23.577L2.22217 20.8548L3.56753 17.9102L32.3286 19.1729L32.8895 23.0269L32.2602 24.0559Z" fill="black"/>
<path d="M27.5606 26.1083C26.9176 25.5752 26.4615 24.7201 26.343 23.7252C26.3224 23.5542 26.311 23.3803 26.311 23.2036C26.311 22.6107 26.4296 22.0548 26.6371 21.5674C26.6326 21.5759 26.6303 21.5845 26.6257 21.593C26.6918 21.9836 26.8127 22.3484 26.9746 22.6791C26.9472 22.8501 26.9335 23.024 26.9335 23.2036C26.9335 24.6944 27.9027 25.9059 29.0952 25.9059C30.2354 25.9059 31.1703 24.7999 31.2501 23.4003C31.4781 23.1323 31.6719 22.8188 31.8179 22.4682C31.811 22.4225 31.8019 22.3798 31.7928 22.3342C31.8498 22.6135 31.8795 22.9043 31.8795 23.2036C31.8795 23.386 31.8681 23.5656 31.8452 23.7423C31.713 24.8084 31.1931 25.7149 30.4702 26.2309C30.0644 26.5216 29.5946 26.6869 29.093 26.6869C28.5275 26.6841 28.0007 26.4703 27.5606 26.1083Z" fill="#17191C"/>
<path d="M29.095 19.7207C30.3925 19.7207 31.4825 20.8324 31.7926 22.3346C31.8017 22.3803 31.8108 22.423 31.8177 22.4686C31.6717 22.8192 31.4779 23.1328 31.2499 23.4007C31.2544 23.3352 31.2567 23.2696 31.2567 23.2041C31.2567 21.7132 30.2876 20.5018 29.095 20.5018C28.0461 20.5018 27.1705 21.4396 26.9744 22.6796C26.8125 22.3489 26.6939 21.984 26.6255 21.5935C26.63 21.585 26.6323 21.5764 26.6369 21.5678C27.1066 20.4675 28.0301 19.7207 29.095 19.7207Z" fill="#282F39"/>
<path d="M26.979 23.2009C26.979 24.6604 27.9299 25.849 29.0974 25.849C30.2649 25.849 31.2157 24.6604 31.2157 23.2009C31.2157 21.7414 30.2649 20.5527 29.0974 20.5527C27.9276 20.5556 26.979 21.7414 26.979 23.2009ZM28.5592 21.0316L28.8215 22.2003C28.696 22.2545 28.5843 22.34 28.4931 22.4569L27.8159 21.5903C28.0234 21.3338 28.2765 21.1399 28.5592 21.0316ZM29.0951 22.8332C29.257 22.8332 29.3893 22.9985 29.3893 23.2009C29.3893 23.4033 29.257 23.5686 29.0951 23.5686C28.9332 23.5686 28.8009 23.4033 28.8009 23.2009C28.8009 22.9985 28.9332 22.8332 29.0951 22.8332ZM29.5169 20.9917L29.2775 22.1661C29.2182 22.149 29.1589 22.1405 29.0951 22.1405C29.0153 22.1405 28.9378 22.1547 28.8648 22.1804L28.6026 21.0145C28.7599 20.9604 28.9241 20.929 29.0974 20.929C29.241 20.9319 29.3824 20.9518 29.5169 20.9917ZM30.3903 21.6103L29.6971 22.4569C29.5945 22.3286 29.4645 22.2317 29.3208 22.1832L29.5603 21.0088C29.8795 21.1114 30.1645 21.3224 30.3903 21.6103ZM30.8577 22.6507L29.9183 22.95C29.8841 22.779 29.8179 22.6222 29.7267 22.4968L30.4199 21.6502C30.6297 21.9267 30.7825 22.2716 30.8577 22.6507ZM30.8395 23.8366L29.9069 23.5087C29.9297 23.4118 29.9434 23.3092 29.9434 23.2037C29.9434 23.1353 29.9388 23.0698 29.9274 23.007L30.8669 22.7077C30.8965 22.8674 30.9102 23.0327 30.9102 23.2037C30.9125 23.4232 30.8874 23.6342 30.8395 23.8366ZM30.3538 24.8399L29.6766 23.9734C29.7723 23.8594 29.8453 23.7197 29.8909 23.5629L30.8258 23.8907C30.7346 24.2556 30.5704 24.5805 30.3538 24.8399ZM29.5854 25.3901L29.3231 24.2242C29.444 24.1815 29.5534 24.1102 29.6446 24.0104L30.3219 24.8798C30.1144 25.1136 29.8635 25.2903 29.5854 25.3901ZM28.6618 25.4072L28.9013 24.2328C28.9628 24.2499 29.029 24.2613 29.0951 24.2613C29.1589 24.2613 29.2205 24.2527 29.2798 24.2356L29.542 25.4043C29.3984 25.45 29.2502 25.4728 29.0951 25.4728C28.9469 25.4728 28.8009 25.45 28.6618 25.4072ZM27.8204 24.82L28.5136 23.9734C28.6094 24.0874 28.728 24.1729 28.8579 24.2185L28.6185 25.3929C28.3152 25.2903 28.0416 25.0908 27.8204 24.82ZM27.3484 23.8251L28.2879 23.5258C28.3266 23.6798 28.3951 23.8194 28.484 23.9335L27.7908 24.7801C27.5856 24.515 27.4328 24.19 27.3484 23.8251ZM27.3324 22.6593L28.2651 22.9871C28.2537 23.0555 28.2468 23.1268 28.2468 23.2009C28.2468 23.2949 28.2582 23.3862 28.2765 23.4717L27.337 23.771C27.2982 23.5886 27.28 23.3976 27.28 23.2009C27.28 23.0156 27.2982 22.8332 27.3324 22.6593ZM27.3416 22.6051C27.4214 22.2317 27.5764 21.8982 27.7862 21.6274L28.4635 22.4968C28.3745 22.6194 28.3107 22.7705 28.2742 22.9358L27.3416 22.6051Z" fill="#989B9E"/>
<path d="M26.9746 22.6768C26.9473 22.8479 26.9336 23.0217 26.9336 23.2013C26.9336 24.6922 27.9027 25.9036 29.0953 25.9036C30.2354 25.9036 31.1703 24.7976 31.2501 23.398C31.2547 23.3325 31.257 23.2669 31.257 23.2013C31.257 21.7105 30.2879 20.499 29.0953 20.499C28.0486 20.499 27.1707 21.4368 26.9746 22.6768ZM26.9792 23.2013C26.9792 21.7419 27.9301 20.5532 29.0976 20.5532C30.2651 20.5532 31.2159 21.7419 31.2159 23.2013C31.2159 24.6608 30.2651 25.8495 29.0976 25.8495C27.9278 25.8495 26.9792 24.6608 26.9792 23.2013Z" fill="#545759"/>
<path d="M29.6443 24.0078L30.3215 24.8772C30.114 25.1138 29.8632 25.2906 29.585 25.3903L29.3228 24.2245C29.4436 24.1817 29.5508 24.1076 29.6443 24.0078Z" fill="black"/>
<path d="M29.8931 23.5605L30.828 23.8884C30.7345 24.2532 30.5703 24.5782 30.3559 24.8376L29.6787 23.971C29.7722 23.8599 29.8475 23.7173 29.8931 23.5605Z" fill="black"/>
<path d="M29.0949 24.2619C29.1587 24.2619 29.2203 24.2534 29.2796 24.2362L29.5418 25.405C29.3981 25.4506 29.2499 25.4734 29.0949 25.4734C28.9467 25.4734 28.8007 25.4506 28.6616 25.4078L28.901 24.2334C28.9649 24.2505 29.0287 24.2619 29.0949 24.2619Z" fill="black"/>
<path d="M29.9435 23.2011C29.9435 23.1327 29.939 23.0671 29.9276 23.0044L30.8671 22.7051C30.8967 22.8647 30.9104 23.03 30.9104 23.2011C30.9104 23.4206 30.8853 23.6344 30.8374 23.8339L29.9048 23.5061C29.9299 23.412 29.9435 23.3094 29.9435 23.2011Z" fill="black"/>
<path d="M28.4837 23.934L27.7905 24.7806C27.5853 24.5155 27.4325 24.1905 27.3481 23.8257L28.2876 23.5264C28.3287 23.6831 28.3948 23.82 28.4837 23.934Z" fill="black"/>
<path d="M29.0951 22.1431C29.0153 22.1431 28.9377 22.1574 28.8648 22.183L28.6025 21.0172C28.7599 20.963 28.9241 20.9316 29.0974 20.9316C29.2433 20.9316 29.3824 20.9544 29.5192 20.9944L29.2798 22.1688C29.2182 22.1517 29.1589 22.1431 29.0951 22.1431Z" fill="black"/>
<path d="M29.7266 22.497L30.4198 21.6504C30.6273 21.9269 30.78 22.2718 30.8576 22.6509L29.9181 22.9502C29.8839 22.7792 29.8178 22.6253 29.7266 22.497Z" fill="black"/>
<path d="M29.3208 22.1803L29.5602 21.0059C29.8795 21.1113 30.1668 21.3223 30.3902 21.6102L29.697 22.4568C29.5944 22.3257 29.4645 22.2316 29.3208 22.1803Z" fill="black"/>
<path d="M28.2466 23.2008C28.2466 23.2948 28.258 23.3861 28.2763 23.4716L27.3368 23.7709C27.298 23.5885 27.2798 23.3975 27.2798 23.2008C27.2798 23.0126 27.298 22.8331 27.3322 22.6592L28.2649 22.987C28.2535 23.0583 28.2466 23.1295 28.2466 23.2008Z" fill="black"/>
<path d="M28.8603 24.2188L28.6208 25.3932C28.3153 25.2906 28.0417 25.0882 27.8228 24.8202L28.516 23.9736C28.6117 24.0877 28.728 24.1732 28.8603 24.2188Z" fill="black"/>
<path d="M28.4932 22.4546L27.8159 21.5881C28.0211 21.3344 28.2743 21.1405 28.557 21.0322L28.8192 22.2009C28.6961 22.2523 28.5844 22.3406 28.4932 22.4546Z" fill="black"/>
<path d="M28.4632 22.4973C28.3743 22.6199 28.3104 22.771 28.2739 22.9363L27.3413 22.6057C27.4211 22.2322 27.5762 21.8987 27.786 21.6279L28.4632 22.4973Z" fill="black"/>
<path d="M29.0951 22.8906C29.2342 22.8906 29.3459 23.0303 29.3459 23.2042C29.3459 23.3781 29.2342 23.5177 29.0951 23.5177C28.956 23.5177 28.8442 23.3781 28.8442 23.2042C28.8442 23.0303 28.9583 22.8906 29.0951 22.8906Z" fill="#989B9E"/>
<path d="M28.8008 23.2007C28.8008 23.4031 28.933 23.5684 29.0949 23.5684C29.2568 23.5684 29.3891 23.4031 29.3891 23.2007C29.3891 22.9983 29.2568 22.833 29.0949 22.833C28.933 22.833 28.8008 22.9983 28.8008 23.2007ZM28.8441 23.2007C28.8441 23.0268 28.9558 22.8872 29.0949 22.8872C29.234 22.8872 29.3458 23.0268 29.3458 23.2007C29.3458 23.3746 29.234 23.5143 29.0949 23.5143C28.9581 23.5143 28.8441 23.3746 28.8441 23.2007Z" fill="#545759"/>
<path d="M5.52644 26.1083C4.88341 25.5752 4.42735 24.7201 4.30878 23.7252C4.28826 23.5542 4.27686 23.3803 4.27686 23.2036C4.27686 22.6107 4.39543 22.0548 4.60293 21.5674C4.59837 21.5759 4.59609 21.5845 4.59153 21.593C4.65766 21.9836 4.77851 22.3484 4.94041 22.6791C4.91305 22.8501 4.89937 23.024 4.89937 23.2036C4.89937 24.6944 5.86848 25.9059 7.06106 25.9059C8.2012 25.9059 9.13611 24.7999 9.21592 23.4003C9.44395 23.1323 9.63777 22.8188 9.78371 22.4682C9.77686 22.4225 9.76774 22.3798 9.75862 22.3342C9.81563 22.6135 9.84527 22.9043 9.84527 23.2036C9.84527 23.386 9.83387 23.5656 9.81107 23.7423C9.67881 24.8084 9.15891 25.7149 8.43607 26.2309C8.03018 26.5216 7.56044 26.6869 7.05878 26.6869C6.49556 26.6841 5.96653 26.4703 5.52644 26.1083Z" fill="#17191C"/>
<path d="M7.06328 19.7207C8.36076 19.7207 9.45072 20.8324 9.76084 22.3346C9.76996 22.3803 9.77908 22.423 9.78592 22.4686C9.63999 22.8192 9.44616 23.1328 9.21814 23.4007C9.2227 23.3352 9.22498 23.2696 9.22498 23.2041C9.22498 21.7132 8.25586 20.5018 7.06328 20.5018C6.01436 20.5018 5.13873 21.4396 4.94263 22.6796C4.78073 22.3489 4.66216 21.984 4.59375 21.5935C4.59831 21.585 4.60059 21.5764 4.60515 21.5678C5.07261 20.4675 5.9984 19.7207 7.06328 19.7207Z" fill="#282F39"/>
<path d="M4.94531 23.2009C4.94531 24.6604 5.89618 25.849 7.06368 25.849C8.23118 25.849 9.18205 24.6604 9.18205 23.2009C9.18205 21.7414 8.23118 20.5527 7.06368 20.5527C5.89618 20.5556 4.94531 21.7414 4.94531 23.2009ZM6.52782 21.0316L6.79005 22.2003C6.66464 22.2545 6.5529 22.34 6.46169 22.4569L5.78445 21.5903C5.98968 21.3338 6.24279 21.1399 6.52782 21.0316ZM7.06368 22.8332C7.22558 22.8332 7.35784 22.9985 7.35784 23.2009C7.35784 23.4033 7.22558 23.5686 7.06368 23.5686C6.90178 23.5686 6.76953 23.4033 6.76953 23.2009C6.76953 22.9985 6.90178 22.8332 7.06368 22.8332ZM7.48325 20.9917L7.24382 22.1661C7.18454 22.149 7.12525 22.1405 7.0614 22.1405C6.98159 22.1405 6.90406 22.1547 6.8311 22.1804L6.56886 21.0174C6.7262 20.9632 6.89038 20.9319 7.06368 20.9319C7.20734 20.9319 7.34872 20.9518 7.48325 20.9917ZM8.35888 21.6103L7.66567 22.4569C7.56306 22.3286 7.43309 22.2317 7.28943 22.1832L7.52886 21.0088C7.8481 21.1114 8.13313 21.3224 8.35888 21.6103ZM8.82633 22.6507L7.88686 22.95C7.85266 22.779 7.78653 22.6222 7.69532 22.4968L8.38852 21.6502C8.59602 21.9267 8.7488 22.2716 8.82633 22.6507ZM8.80809 23.8366L7.87546 23.5087C7.89826 23.4118 7.91194 23.3092 7.91194 23.2037C7.91194 23.1353 7.90738 23.0698 7.89598 23.007L8.83545 22.7077C8.8651 22.8674 8.87878 23.0327 8.87878 23.2037C8.87878 23.4232 8.85369 23.6342 8.80809 23.8366ZM8.32239 24.8399L7.64515 23.9734C7.74092 23.8594 7.81389 23.7197 7.8595 23.5629L8.79441 23.8907C8.7032 24.2556 8.53674 24.5805 8.32239 24.8399ZM7.55394 25.3901L7.29171 24.2242C7.41256 24.1815 7.52202 24.1102 7.61323 24.0104L8.29047 24.8798C8.08296 25.1136 7.83213 25.2903 7.55394 25.3901ZM6.63043 25.4072L6.86986 24.2328C6.93143 24.2499 6.99756 24.2613 7.06368 24.2613C7.12753 24.2613 7.1891 24.2527 7.24838 24.2356L7.51062 25.4043C7.36696 25.45 7.21874 25.4728 7.06368 25.4728C6.91319 25.4728 6.76953 25.45 6.63043 25.4072ZM5.78901 24.82L6.48221 23.9734C6.57799 24.0874 6.69656 24.1729 6.82653 24.2185L6.58711 25.3929C6.28155 25.2903 6.00792 25.0908 5.78901 24.82ZM5.317 23.8251L6.25647 23.5258C6.29523 23.6798 6.36364 23.8194 6.45257 23.9335L5.75937 24.7801C5.55414 24.515 5.39909 24.19 5.317 23.8251ZM5.29875 22.6593L6.23138 22.9871C6.21998 23.0555 6.21314 23.1268 6.21314 23.2009C6.21314 23.2949 6.22454 23.3862 6.24279 23.4717L5.3056 23.7738C5.26683 23.5914 5.24859 23.4004 5.24859 23.2037C5.24631 23.0156 5.26455 22.8332 5.29875 22.6593ZM5.31016 22.6051C5.38996 22.2317 5.54502 21.8982 5.75481 21.6274L6.43205 22.4968C6.34312 22.6194 6.27927 22.7705 6.24279 22.9358L5.31016 22.6051Z" fill="#989B9E"/>
<path d="M4.9429 22.6768C4.91554 22.8479 4.90186 23.0217 4.90186 23.2013C4.90186 24.6922 5.87097 25.9036 7.06355 25.9036C8.20369 25.9036 9.1386 24.7976 9.21841 23.398C9.22297 23.3325 9.22525 23.2669 9.22525 23.2013C9.22525 21.7105 8.25613 20.499 7.06355 20.499C6.01463 20.499 5.139 21.4368 4.9429 22.6768ZM4.94518 23.2013C4.94518 21.7419 5.89605 20.5532 7.06355 20.5532C8.23105 20.5532 9.18192 21.7419 9.18192 23.2013C9.18192 24.6608 8.23105 25.8495 7.06355 25.8495C5.89605 25.8495 4.94518 24.6608 4.94518 23.2013Z" fill="#545759"/>
<path d="M7.61302 24.0078L8.29026 24.8772C8.08276 25.1138 7.83193 25.2906 7.55373 25.3903L7.2915 24.2245C7.41008 24.1817 7.51953 24.1076 7.61302 24.0078Z" fill="black"/>
<path d="M7.85936 23.5605L8.79428 23.8884C8.70078 24.2532 8.5366 24.5782 8.32226 24.8376L7.64502 23.971C7.74079 23.8599 7.81376 23.7173 7.85936 23.5605Z" fill="black"/>
<path d="M7.06362 24.2619C7.12747 24.2619 7.18904 24.2534 7.24832 24.2362L7.51055 25.405C7.3669 25.4506 7.21868 25.4734 7.06362 25.4734C6.9154 25.4734 6.76947 25.4506 6.63037 25.4078L6.8698 24.2334C6.93137 24.2505 6.99749 24.2619 7.06362 24.2619Z" fill="black"/>
<path d="M7.91132 23.2011C7.91132 23.1327 7.90676 23.0671 7.89536 23.0044L8.83483 22.7051C8.86448 22.8647 8.87816 23.03 8.87816 23.2011C8.87816 23.4206 8.85307 23.6344 8.80519 23.8339L7.87256 23.5061C7.89764 23.412 7.91132 23.3094 7.91132 23.2011Z" fill="black"/>
<path d="M6.45247 23.934L5.75927 24.7806C5.55404 24.5155 5.40126 24.1905 5.31689 23.8257L6.25637 23.5264C6.29513 23.6831 6.36354 23.82 6.45247 23.934Z" fill="black"/>
<path d="M7.06318 22.1431C6.98337 22.1431 6.90584 22.1574 6.83287 22.183L6.56836 21.0172C6.7257 20.963 6.88988 20.9316 7.06318 20.9316C7.20912 20.9316 7.34821 20.9544 7.48503 20.9944L7.2456 22.1688C7.18631 22.1517 7.12475 22.1431 7.06318 22.1431Z" fill="black"/>
<path d="M7.69482 22.497L8.38803 21.6504C8.59553 21.9269 8.74831 22.2718 8.82584 22.6509L7.88637 22.9502C7.85216 22.7792 7.78603 22.6253 7.69482 22.497Z" fill="black"/>
<path d="M7.28662 22.1803L7.52605 21.0059C7.84529 21.1113 8.1326 21.3223 8.35607 21.6102L7.66287 22.4568C7.56253 22.3257 7.43256 22.2316 7.28662 22.1803Z" fill="black"/>
<path d="M6.21488 23.2009C6.21488 23.2949 6.22628 23.3861 6.24452 23.4717L5.30505 23.7738C5.26629 23.5914 5.24805 23.4004 5.24805 23.2037C5.24805 23.0156 5.26629 22.836 5.30049 22.6621L6.23312 22.9899C6.22172 23.0583 6.21488 23.1296 6.21488 23.2009Z" fill="black"/>
<path d="M6.8261 24.2188L6.58667 25.3932C6.28111 25.2906 6.00748 25.0882 5.78857 24.8202L6.48178 23.9736C6.57983 24.0877 6.69612 24.1732 6.8261 24.2188Z" fill="black"/>
<path d="M6.46142 22.4546L5.78418 21.5881C5.9894 21.3344 6.24251 21.1405 6.52527 21.0322L6.7875 22.2009C6.66436 22.2523 6.55263 22.3406 6.46142 22.4546Z" fill="black"/>
<path d="M6.43195 22.4973C6.34302 22.6199 6.27917 22.771 6.24269 22.9363L5.31006 22.6057C5.38987 22.2322 5.54493 21.8987 5.75471 21.6279L6.43195 22.4973Z" fill="black"/>
<path d="M7.06333 22.8906C7.20243 22.8906 7.31416 23.0303 7.31416 23.2042C7.31416 23.3781 7.20243 23.5177 7.06333 23.5177C6.92423 23.5177 6.8125 23.3781 6.8125 23.2042C6.8125 23.0303 6.92423 22.8906 7.06333 22.8906Z" fill="#989B9E"/>
<path d="M6.76904 23.2007C6.76904 23.4031 6.9013 23.5684 7.0632 23.5684C7.2251 23.5684 7.35735 23.4031 7.35735 23.2007C7.35735 22.9983 7.2251 22.833 7.0632 22.833C6.9013 22.833 6.76904 22.9983 6.76904 23.2007ZM6.81237 23.2007C6.81237 23.0268 6.9241 22.8872 7.0632 22.8872C7.20229 22.8872 7.31403 23.0268 7.31403 23.2007C7.31403 23.3746 7.20229 23.5143 7.0632 23.5143C6.9241 23.5143 6.81237 23.3746 6.81237 23.2007Z" fill="#545759"/>
<path d="M25.969 23.7764L10.2055 23.6168C10.2055 23.6168 10.2375 19.6432 7.15454 19.3638C4.0739 19.0788 4.04197 23.5741 4.04197 23.5741C4.04197 23.5741 0.701378 23.0125 0.347936 22.9327C-0.00550567 22.8529 -0.0374294 21.8495 0.0264181 21.0057C0.0925459 20.162 1.11867 16.6729 1.11867 16.6729C1.11867 16.6729 0.990972 15.8292 1.15059 15.5498C1.31021 15.2676 3.7501 15.1878 3.7501 15.1878C3.7501 15.1878 8.27643 12.5795 11.0698 11.9382C13.8631 11.2968 19.3517 11.8185 20.9251 12.5795C22.4985 13.3435 25.6452 15.5498 26.4798 15.8691C27.3144 16.1912 31.9707 16.8325 32.9649 17.6335C33.9591 18.4374 34.666 19.5206 34.8598 20.6437C35.0514 21.7668 34.9875 23.5341 34.9875 23.5341C34.9875 23.5341 33.8633 24.1356 32.258 24.0558C32.258 24.0558 32.4838 19.5206 29.2732 19.2812C26.0306 19.036 25.969 23.7764 25.969 23.7764Z" fill="#F7D035"/>
<path d="M25.969 23.7764L10.2055 23.6168C10.2055 23.6168 10.2443 19.4294 7.15454 19.3638C3.87779 19.2897 4.04197 23.5741 4.04197 23.5741C4.04197 23.5741 0.701378 23.0125 0.347936 22.9327C-0.00550567 22.8529 -0.0374294 21.8495 0.0264181 21.0057C0.0925459 20.162 1.11867 16.6729 1.11867 16.6729C1.11867 16.6729 0.990972 15.8292 1.15059 15.5498C1.31021 15.2676 3.7501 15.1878 3.7501 15.1878C3.7501 15.1878 8.27643 12.5795 11.0698 11.9382C13.8631 11.2968 19.3517 11.8185 20.9251 12.5795C22.4985 13.3435 25.6452 15.5498 26.4798 15.8691C27.3144 16.1912 31.9707 16.8325 32.9649 17.6335C33.9591 18.4374 34.666 19.5206 34.8598 20.6437C35.0514 21.7668 34.9875 23.5341 34.9875 23.5341C34.9875 23.5341 33.8633 24.1356 32.258 24.0558C32.258 24.0558 32.4838 19.5206 29.2732 19.2812C26.0306 19.036 25.969 23.7764 25.969 23.7764Z" fill="#DDDDDD"/>
<path d="M32.55 19.7235C32.55 19.7235 32.4542 18.9196 31.9731 18.4379C31.492 17.9561 31.6835 17.634 32.2627 17.7566C32.8396 17.8763 33.7084 18.2783 34.1895 19.7634C34.1872 19.7634 33.4484 19.923 32.55 19.7235Z" fill="#E8F2F4"/>
<path d="M25.5176 16.3905C25.5176 16.3905 22.7243 14.0616 20.0609 12.9784C17.3953 11.8952 11.7128 12.4966 10.4929 12.8188C9.27295 13.1409 7.28228 14.0616 7.21843 14.3438C7.15458 14.626 8.27876 15.5866 8.69605 15.7092C9.11334 15.8289 25.1984 16.6328 25.1984 16.6328C25.1984 16.6328 25.5518 16.59 25.5176 16.3905Z" fill="black"/>
<path d="M30.3014 17.5141L1.11852 16.6732L1.0752 15.9121L29.3072 17.0723L30.3014 17.5141Z" fill="#E5E5E5"/>
<path d="M17.8784 17.6762C16.9481 17.6163 17.1396 18.7195 17.8465 18.7195C18.5534 18.7195 18.4873 17.7161 17.8784 17.6762Z" fill="#B9B9B9"/>
<path d="M18.9364 18.1495C18.9364 18.3262 18.4553 18.3576 17.9422 18.3576C17.4292 18.3576 16.7861 18.3576 16.7861 18.1495C16.7861 17.9414 17.4292 17.9414 17.8465 17.9414C18.2637 17.9414 18.9364 17.9728 18.9364 18.1495Z" fill="#E8F2F4"/>
<path d="M10.0481 17.3148C9.11778 17.2436 9.30248 18.3524 10.0094 18.3581C10.7163 18.3638 10.657 17.3604 10.0481 17.3148Z" fill="#B9B9B9"/>
<path d="M11.1039 17.8903C11.1016 18.067 10.6205 18.0955 10.1074 18.0898C9.59438 18.087 8.95134 18.0813 8.95362 17.8732C8.9559 17.6651 9.59666 17.6708 10.0139 17.6736C10.4312 17.6793 11.1039 17.7135 11.1039 17.8903Z" fill="#E8F2F4"/>
<path d="M10.1055 22.6133L26.0309 23.0095C25.9716 23.4656 25.967 23.7734 25.967 23.7734L10.2035 23.6138C10.2058 23.6138 10.2081 23.1919 10.1055 22.6133Z" fill="#1481DA"/>
<path d="M4.04215 23.5746C4.04215 23.5746 0.703833 23.013 0.350391 22.9332C0.0835993 22.8733 -0.000770636 22.2947 0.00150963 21.6533C0.126924 21.8215 0.318467 21.9925 0.605781 22.0895C1.21689 22.2975 3.50856 22.6254 4.11512 22.7109C4.04443 23.2183 4.04215 23.5746 4.04215 23.5746Z" fill="#1481DA"/>
<path d="M34.9897 23.534C34.9897 23.534 33.8655 24.1355 32.2602 24.0556C32.2602 24.0556 32.2967 23.3145 32.1279 22.4137C32.5019 22.3653 32.9397 22.2912 33.4163 22.1686C34.8278 21.8066 34.862 20.6436 34.862 20.6436C35.0535 21.7695 34.9897 23.534 34.9897 23.534Z" fill="#1481DA"/>
<path d="M8.31738 15.527L9.37087 13.1753C9.75851 13.0271 10.1439 12.896 10.4722 12.8076L9.34578 15.7921C8.97182 15.7636 8.74379 15.7437 8.69819 15.7294C8.60242 15.7009 8.4656 15.6268 8.31738 15.527Z" fill="#ADA5B0"/>
<path d="M8.6961 15.778C8.68698 15.778 8.67786 15.7752 8.66874 15.7695C8.64137 15.7524 8.63225 15.7096 8.64593 15.6754L9.81571 12.9817C9.82939 12.9475 9.8636 12.9361 9.89096 12.9532C9.91832 12.9703 9.92745 13.013 9.91376 13.0472L8.74399 15.741C8.73486 15.7666 8.71662 15.778 8.6961 15.778Z" fill="#E5E5E5"/>
<path d="M23.6111 16.8663C23.659 16.8663 23.7092 16.8378 23.7411 16.7865L24.2952 15.863C24.3477 15.7746 24.334 15.6492 24.2633 15.5808C24.1926 15.5152 24.0923 15.5323 24.0376 15.6207L23.4835 16.5442C23.431 16.6326 23.4447 16.758 23.5154 16.8264C23.545 16.8549 23.5792 16.8663 23.6111 16.8663Z" fill="#383D4A"/>
<path d="M23.0299 14.9744L23.0527 15.8011C23.0573 15.9607 23.1553 16.0861 23.283 16.1004C23.6707 16.1375 24.4255 16.1232 24.4255 15.4704C24.4255 14.6865 23.6661 14.6324 23.2648 14.658C23.1303 14.6637 23.0254 14.8034 23.0299 14.9744Z" fill="#383D4A"/>
<path d="M22.5331 16.4966C20.9415 16.4168 18.8276 16.3056 16.7321 16.1944L16.3057 13.4209C16.3057 13.4209 18.3283 13.3011 19.7397 13.8627C20.9757 14.353 22.2366 16.0747 22.5331 16.4966Z" fill="#273033"/>
<path d="M11.6172 13.8618C12.3879 13.42 14.9555 13.4599 14.9555 13.4599L14.9258 16.0967C13.3456 16.0111 11.8725 15.9285 10.7529 15.8601C10.778 15.595 10.9262 14.2581 11.6172 13.8618Z" fill="#273033"/>
<path d="M16.3373 12.3484C16.0249 12.337 15.7079 12.3341 15.3955 12.337L15.4502 16.1424L16.9757 16.2165L16.3373 12.3484Z" fill="#ADA5B0"/>
<path d="M16.2414 16.26C16.2141 16.26 16.189 16.2343 16.1867 16.1973L15.8219 12.4146C15.8173 12.3775 15.8401 12.3405 15.8698 12.3376C15.9017 12.3319 15.929 12.3604 15.9313 12.3975L16.2962 16.1802C16.3007 16.2172 16.2779 16.2543 16.2483 16.2571C16.246 16.26 16.2437 16.26 16.2414 16.26Z" fill="white"/>
<path d="M31.9706 18.4376C31.9341 18.4005 31.9022 18.3663 31.8726 18.3321C32.2192 18.2837 32.5772 18.2837 32.8599 18.5203C33.0104 18.6485 33.1267 18.8338 33.2179 19.0305C33.3319 19.2728 33.4163 19.5436 33.4186 19.823C33.1655 19.8201 32.869 19.7945 32.5498 19.7232C32.5498 19.7232 32.454 18.9193 31.9706 18.4376Z" fill="#FFFDD1"/>
<path d="M24.8586 23.7879C24.8312 23.7879 24.8084 23.7623 24.8039 23.7281C24.7993 23.691 24.8198 23.654 24.8495 23.6483C24.8609 23.6454 25.1254 23.5856 25.2417 23.2264C25.3625 22.8473 25.3511 18.0555 25.3215 17.5966C25.2918 17.1405 25.0273 16.7272 25.025 16.7243C25.0045 16.693 25.0091 16.6502 25.0342 16.6246C25.0592 16.5989 25.0935 16.6046 25.114 16.636C25.1254 16.6531 25.4013 17.0892 25.4355 17.5852C25.4651 18.0185 25.4857 22.8473 25.3488 23.2777C25.2097 23.711 24.8859 23.7822 24.8723 23.7851C24.8654 23.7879 24.8631 23.7879 24.8586 23.7879Z" fill="#1481DA"/>
<path d="M16.3887 23.8884C16.3819 23.8884 16.3751 23.8884 16.3705 23.8855C16.3409 23.8713 16.3272 23.8314 16.3363 23.7972C16.3386 23.7915 16.4777 23.304 16.5073 22.9164C16.5347 22.5857 16.6099 18.1132 16.5803 16.859C16.578 16.7136 16.4571 16.5169 16.4093 16.4513C16.3887 16.4228 16.391 16.3772 16.4138 16.3516C16.4366 16.3259 16.4731 16.3288 16.4936 16.3573C16.5005 16.3687 16.6875 16.6309 16.692 16.8533C16.7217 18.1104 16.6441 22.5971 16.619 22.9278C16.5871 23.3325 16.448 23.8228 16.4412 23.8428C16.4321 23.8713 16.4115 23.8884 16.3887 23.8884Z" fill="#1481DA"/>
<path d="M11.699 23.6198C11.6831 23.6198 11.6671 23.6112 11.6557 23.5941C11.6192 23.54 8.08252 18.1182 8.08252 17.5225C8.08252 16.8811 8.59558 15.7665 8.61838 15.7181C8.63434 15.6839 8.66855 15.6725 8.69591 15.6924C8.72328 15.7124 8.7324 15.7551 8.71643 15.7894C8.71187 15.8008 8.19653 16.9182 8.19653 17.5225C8.19653 17.9444 10.6319 21.8068 11.7446 23.5058C11.7652 23.5371 11.7606 23.5799 11.7378 23.6055C11.7241 23.6141 11.7104 23.6198 11.699 23.6198Z" fill="#1481DA"/>
<path d="M1.99647 19.0648C2.13784 18.5688 1.85281 18.0443 1.43096 18.0215L0.742319 17.9873C0.607783 18.4719 0.457285 19.0277 0.32959 19.538L1.38307 19.5865C1.65671 19.6007 1.90526 19.3898 1.99647 19.0648Z" fill="#FF6F57"/>
</svg>
